# This file uses centimeters as units for non-parametric coordinates.

mtllib CropSoil2.mtl
g default
v 0.335331 0.000000 -0.193604
v 0.193604 0.000000 -0.335331
v 0.000000 0.000000 -0.387207
v -0.193604 0.000000 -0.335331
v -0.335331 0.000000 -0.193604
v -0.387207 0.000000 0.000000
v -0.335331 0.000000 0.193604
v -0.193604 0.000000 0.335331
v 0.000000 0.000000 0.387207
v 0.193604 0.000000 0.335331
v 0.335331 0.000000 0.193604
v 0.387207 0.000000 0.000000
v 0.263979 0.026999 -0.152408
v 0.152408 0.026999 -0.263979
v 0.000000 0.026999 -0.304817
v -0.152408 0.026999 -0.263979
v -0.263979 0.026999 -0.152408
v -0.304817 0.026999 0.000000
v -0.263979 0.026999 0.152408
v -0.152408 0.026999 0.263979
v 0.000000 0.026999 0.304817
v 0.152408 0.026999 0.263979
v 0.263979 0.026999 0.152408
v 0.304817 0.026999 0.000000
v 0.216307 0.052157 -0.124885
v 0.124885 0.052157 -0.216307
v 0.000000 0.052157 -0.249769
v -0.124885 0.052157 -0.216307
v -0.216307 0.052157 -0.124885
v -0.249769 0.052157 0.000000
v -0.216307 0.052157 0.124885
v -0.124885 0.052157 0.216307
v 0.000000 0.052157 0.249769
v 0.124885 0.052157 0.216307
v 0.216307 0.052157 0.124885
v 0.249769 0.052157 0.000000
v 0.178023 0.073762 -0.102781
v 0.102781 0.073762 -0.178023
v 0.000000 0.073762 -0.205562
v -0.102781 0.073762 -0.178023
v -0.178023 0.073762 -0.102781
v -0.205562 0.073762 0.000000
v -0.178023 0.073762 0.102781
v -0.102781 0.073762 0.178023
v 0.000000 0.073762 0.205562
v 0.102781 0.073762 0.178023
v 0.178023 0.073762 0.102781
v 0.205562 0.073762 0.000000
v 0.098948 0.090339 -0.057128
v 0.057128 0.090339 -0.098948
v 0.000000 0.090339 -0.114255
v -0.057128 0.090339 -0.098948
v -0.098948 0.090339 -0.057128
v -0.114255 0.090339 0.000000
v -0.098948 0.090339 0.057128
v -0.057128 0.090339 0.098948
v 0.000000 0.090339 0.114255
v 0.057128 0.090339 0.098948
v 0.098948 0.090339 0.057128
v 0.114255 0.090339 0.000000
v 0.000000 0.062226 0.000000
v 0.048503 0.095550 -0.028003
v 0.032064 0.071766 -0.018512
v 0.017690 0.059623 -0.010214
v 0.028003 0.095550 -0.048503
v 0.018512 0.071766 -0.032064
v 0.010214 0.059623 -0.017690
v 0.000000 0.095550 -0.056006
v 0.000000 0.071766 -0.037025
v 0.000000 0.059623 -0.020427
v -0.028003 0.095550 -0.048503
v -0.018512 0.071766 -0.032064
v -0.010214 0.059623 -0.017690
v -0.048503 0.095550 -0.028003
v -0.032064 0.071766 -0.018512
v -0.017690 0.059623 -0.010214
v -0.056006 0.095550 0.000000
v -0.037025 0.071766 0.000000
v -0.020427 0.059623 0.000000
v -0.048503 0.095550 0.028003
v -0.032064 0.071766 0.018512
v -0.017690 0.059623 0.010214
v -0.028003 0.095550 0.048503
v -0.018512 0.071766 0.032064
v -0.010214 0.059623 0.017690
v 0.000000 0.095550 0.056006
v 0.000000 0.071766 0.037025
v 0.000000 0.059623 0.020427
v 0.028003 0.095550 0.048503
v 0.018512 0.071766 0.032064
v 0.010214 0.059623 0.017690
v 0.048503 0.095550 0.028003
v 0.032064 0.071766 0.018512
v 0.017690 0.059623 0.010214
v 0.056006 0.095550 0.000000
v 0.037025 0.071766 0.000000
v 0.020427 0.059623 0.000000
vt 0.851618 0.148429
vt 0.980296 0.371339
vt 0.980279 0.628725
vt 0.851571 0.851619
vt 0.628661 0.980296
vt 0.371275 0.980280
vt 0.148382 0.851572
vt 0.019704 0.628661
vt 0.019720 0.371276
vt 0.148428 0.148382
vt 0.371339 0.019704
vt 0.628724 0.019720
vt 0.775647 0.224652
vt 0.876391 0.399365
vt 0.876282 0.601043
vt 0.775348 0.775647
vt 0.600635 0.876391
vt 0.398957 0.876282
vt 0.224353 0.775348
vt 0.123609 0.600635
vt 0.123718 0.398957
vt 0.224652 0.224353
vt 0.399365 0.123609
vt 0.601043 0.123718
vt 0.723055 0.277474
vt 0.804435 0.418815
vt 0.804240 0.581909
vt 0.722525 0.723056
vt 0.581185 0.804435
vt 0.418091 0.804240
vt 0.276944 0.722526
vt 0.195565 0.581185
vt 0.195760 0.418091
vt 0.277474 0.276945
vt 0.418815 0.195566
vt 0.581909 0.195760
vt 0.680577 0.320114
vt 0.746328 0.434503
vt 0.746074 0.566441
vt 0.679886 0.680577
vt 0.565497 0.746328
vt 0.433559 0.746074
vt 0.319423 0.679886
vt 0.253672 0.565497
vt 0.253926 0.433559
vt 0.320114 0.319423
vt 0.434503 0.253673
vt 0.566441 0.253926
vt 0.601055 0.399474
vt 0.637779 0.463469
vt 0.552241 0.447966
vt 0.637586 0.537253
vt 0.571259 0.481058
vt 0.600526 0.601055
vt 0.571183 0.519225
vt 0.536531 0.637779
vt 0.552034 0.552241
vt 0.462747 0.637586
vt 0.518942 0.571259
vt 0.398945 0.600526
vt 0.480775 0.571183
vt 0.362221 0.536531
vt 0.447759 0.552034
vt 0.362414 0.462747
vt 0.428741 0.518942
vt 0.399474 0.398945
vt 0.428817 0.480775
vt 0.463469 0.362221
vt 0.447966 0.447759
vt 0.537253 0.362414
vt 0.481058 0.428741
vt 0.519225 0.428817
vt 0.520032 0.493976
vt 0.500000 0.500000
vt 0.520360 0.504799
vt 0.515233 0.514336
vt 0.506024 0.520032
vt 0.495201 0.520360
vt 0.485664 0.515233
vt 0.479968 0.506024
vt 0.479640 0.495201
vt 0.484767 0.485664
vt 0.493976 0.479968
vt 0.504799 0.479640
vt 0.514336 0.484767
vt 0.529071 0.469981
vt 0.540186 0.488539
vt 0.540533 0.510167
vt 0.530019 0.529072
vt 0.511461 0.540186
vt 0.489833 0.540533
vt 0.470928 0.530019
vt 0.459814 0.511461
vt 0.459467 0.489833
vt 0.469981 0.470929
vt 0.488539 0.459814
vt 0.510167 0.459467
vn 0.269679 0.950279 -0.155700
vn 0.155700 0.950279 -0.269679
vn 0.171081 0.939641 -0.296321
vn 0.296321 0.939641 -0.171081
vn 0.000000 0.950279 -0.311399
vn 0.000000 0.939641 -0.342161
vn -0.155700 0.950279 -0.269679
vn -0.171081 0.939641 -0.296321
vn -0.269679 0.950279 -0.155700
vn -0.296321 0.939641 -0.171081
vn -0.311399 0.950279 0.000000
vn -0.342161 0.939641 0.000000
vn -0.269679 0.950279 0.155700
vn -0.296321 0.939641 0.171081
vn -0.155700 0.950279 0.269679
vn -0.171081 0.939641 0.296321
vn 0.000000 0.950279 0.311399
vn 0.000000 0.939641 0.342161
vn 0.155700 0.950279 0.269679
vn 0.171081 0.939641 0.296321
vn 0.269679 0.950279 0.155700
vn 0.296321 0.939641 0.171081
vn 0.311399 0.950279 0.000000
vn 0.342161 0.939641 -0.000000
vn 0.211719 0.905925 -0.366708
vn 0.366709 0.905925 -0.211719
vn 0.000000 0.905925 -0.423439
vn -0.211719 0.905925 -0.366708
vn -0.366709 0.905925 -0.211719
vn -0.423439 0.905925 0.000000
vn -0.366709 0.905925 0.211719
vn -0.211719 0.905925 0.366708
vn 0.000000 0.905925 0.423439
vn 0.211719 0.905925 0.366708
vn 0.366709 0.905925 0.211719
vn 0.423439 0.905925 -0.000000
vn 0.157117 0.949345 -0.272135
vn 0.272135 0.949346 -0.157117
vn -0.000000 0.949346 -0.314234
vn -0.157117 0.949345 -0.272135
vn -0.272135 0.949345 -0.157117
vn -0.314234 0.949346 0.000000
vn -0.272135 0.949346 0.157117
vn -0.157117 0.949345 0.272135
vn 0.000000 0.949346 0.314234
vn 0.157117 0.949345 0.272135
vn 0.272135 0.949345 0.157117
vn 0.314234 0.949346 -0.000000
vn 0.080692 0.986892 -0.139763
vn 0.139763 0.986892 -0.080692
vn 0.000000 0.986892 -0.161385
vn -0.080692 0.986892 -0.139763
vn -0.139763 0.986892 -0.080692
vn -0.161385 0.986892 0.000000
vn -0.139763 0.986892 0.080692
vn -0.080692 0.986892 0.139763
vn 0.000000 0.986892 0.161385
vn 0.080692 0.986892 0.139763
vn 0.139763 0.986892 0.080692
vn 0.161385 0.986892 -0.000000
vn -0.036022 0.997401 0.062393
vn -0.062393 0.997401 0.036022
vn -0.000000 0.997401 0.072045
vn 0.036022 0.997401 0.062393
vn 0.062393 0.997401 0.036022
vn 0.072045 0.997401 -0.000000
vn 0.062393 0.997401 -0.036022
vn 0.036022 0.997401 -0.062393
vn 0.000000 0.997401 -0.072045
vn -0.036022 0.997401 -0.062393
vn -0.062393 0.997401 -0.036022
vn -0.072045 0.997401 0.000000
vn -0.400936 0.886379 0.231480
vn -0.231480 0.886379 0.400936
vn 0.000000 1.000000 0.000000
vn 0.000000 0.886378 0.462962
vn 0.231480 0.886379 0.400937
vn 0.400936 0.886379 0.231480
vn 0.462961 0.886379 0.000000
vn 0.400936 0.886379 -0.231480
vn 0.231480 0.886379 -0.400936
vn -0.000000 0.886378 -0.462962
vn -0.231480 0.886379 -0.400937
vn -0.400936 0.886379 -0.231480
vn -0.462961 0.886378 -0.000000
vn -0.640217 0.673422 0.369628
vn -0.739259 0.673421 0.000000
vn -0.369628 0.673422 0.640217
vn -0.000000 0.673421 0.739259
vn 0.369628 0.673422 0.640217
vn 0.640217 0.673422 0.369628
vn 0.739259 0.673421 -0.000000
vn 0.640217 0.673422 -0.369628
vn 0.369628 0.673422 -0.640217
vn 0.000000 0.673421 -0.739259
vn -0.369628 0.673422 -0.640217
vn -0.640217 0.673422 -0.369628
s 1
g CropPlot
usemtl initialShadingGroup
f 1/1/1 2/2/2 14/14/3 13/13/4
f 2/2/2 3/3/5 15/15/6 14/14/3
f 3/3/5 4/4/7 16/16/8 15/15/6
f 4/4/7 5/5/9 17/17/10 16/16/8
f 5/5/9 6/6/11 18/18/12 17/17/10
f 6/6/11 7/7/13 19/19/14 18/18/12
f 7/7/13 8/8/15 20/20/16 19/19/14
f 8/8/15 9/9/17 21/21/18 20/20/16
f 9/9/17 10/10/19 22/22/20 21/21/18
f 10/10/19 11/11/21 23/23/22 22/22/20
f 11/11/21 12/12/23 24/24/24 23/23/22
f 12/12/23 1/1/1 13/13/4 24/24/24
f 13/13/4 14/14/3 26/26/25 25/25/26
f 14/14/3 15/15/6 27/27/27 26/26/25
f 15/15/6 16/16/8 28/28/28 27/27/27
f 16/16/8 17/17/10 29/29/29 28/28/28
f 17/17/10 18/18/12 30/30/30 29/29/29
f 18/18/12 19/19/14 31/31/31 30/30/30
f 19/19/14 20/20/16 32/32/32 31/31/31
f 20/20/16 21/21/18 33/33/33 32/32/32
f 21/21/18 22/22/20 34/34/34 33/33/33
f 22/22/20 23/23/22 35/35/35 34/34/34
f 23/23/22 24/24/24 36/36/36 35/35/35
f 24/24/24 13/13/4 25/25/26 36/36/36
f 25/25/26 26/26/25 38/38/37 37/37/38
f 26/26/25 27/27/27 39/39/39 38/38/37
f 27/27/27 28/28/28 40/40/40 39/39/39
f 28/28/28 29/29/29 41/41/41 40/40/40
f 29/29/29 30/30/30 42/42/42 41/41/41
f 30/30/30 31/31/31 43/43/43 42/42/42
f 31/31/31 32/32/32 44/44/44 43/43/43
f 32/32/32 33/33/33 45/45/45 44/44/44
f 33/33/33 34/34/34 46/46/46 45/45/45
f 34/34/34 35/35/35 47/47/47 46/46/46
f 35/35/35 36/36/36 48/48/48 47/47/47
f 36/36/36 25/25/26 37/37/38 48/48/48
f 37/37/38 38/38/37 50/50/49 49/49/50
f 38/38/37 39/39/39 51/52/51 50/50/49
f 39/39/39 40/40/40 52/54/52 51/52/51
f 40/40/40 41/41/41 53/56/53 52/54/52
f 41/41/41 42/42/42 54/58/54 53/56/53
f 42/42/42 43/43/43 55/60/55 54/58/54
f 43/43/43 44/44/44 56/62/56 55/60/55
f 44/44/44 45/45/45 57/64/57 56/62/56
f 45/45/45 46/46/46 58/66/58 57/64/57
f 46/46/46 47/47/47 59/68/59 58/66/58
f 47/47/47 48/48/48 60/70/60 59/68/59
f 48/48/48 37/37/38 49/49/50 60/70/60
f 49/49/50 50/50/49 65/53/61 62/51/62
f 50/50/49 51/52/51 68/55/63 65/53/61
f 51/52/51 52/54/52 71/57/64 68/55/63
f 52/54/52 53/56/53 74/59/65 71/57/64
f 53/56/53 54/58/54 77/61/66 74/59/65
f 54/58/54 55/60/55 80/63/67 77/61/66
f 55/60/55 56/62/56 83/65/68 80/63/67
f 56/62/56 57/64/57 86/67/69 83/65/68
f 57/64/57 58/66/58 89/69/70 86/67/69
f 58/66/58 59/68/59 92/71/71 89/69/70
f 59/68/59 60/70/60 95/72/72 92/71/71
f 60/70/60 49/49/50 62/51/62 95/72/72
f 64/85/73 67/73/74 61/74/75
f 67/73/74 70/75/76 61/74/75
f 70/75/76 73/76/77 61/74/75
f 73/76/77 76/77/78 61/74/75
f 76/77/78 79/78/79 61/74/75
f 79/78/79 82/79/80 61/74/75
f 82/79/80 85/80/81 61/74/75
f 85/80/81 88/81/82 61/74/75
f 88/81/82 91/82/83 61/74/75
f 91/82/83 94/83/84 61/74/75
f 94/83/84 97/84/85 61/74/75
f 97/84/85 64/85/73 61/74/75
f 62/51/62 63/86/86 96/97/87 95/72/72
f 63/86/86 64/85/73 97/84/85 96/97/87
f 64/85/73 63/86/86 66/87/88 67/73/74
f 63/86/86 62/51/62 65/53/61 66/87/88
f 67/73/74 66/87/88 69/88/89 70/75/76
f 66/87/88 65/53/61 68/55/63 69/88/89
f 70/75/76 69/88/89 72/89/90 73/76/77
f 69/88/89 68/55/63 71/57/64 72/89/90
f 73/76/77 72/89/90 75/90/91 76/77/78
f 72/89/90 71/57/64 74/59/65 75/90/91
f 76/77/78 75/90/91 78/91/92 79/78/79
f 75/90/91 74/59/65 77/61/66 78/91/92
f 79/78/79 78/91/92 81/92/93 82/79/80
f 78/91/92 77/61/66 80/63/67 81/92/93
f 82/79/80 81/92/93 84/93/94 85/80/81
f 81/92/93 80/63/67 83/65/68 84/93/94
f 85/80/81 84/93/94 87/94/95 88/81/82
f 84/93/94 83/65/68 86/67/69 87/94/95
f 88/81/82 87/94/95 90/95/96 91/82/83
f 87/94/95 86/67/69 89/69/70 90/95/96
f 91/82/83 90/95/96 93/96/97 94/83/84
f 90/95/96 89/69/70 92/71/71 93/96/97
f 94/83/84 93/96/97 96/97/87 97/84/85
f 93/96/97 92/71/71 95/72/72 96/97/87
