# This file uses centimeters as units for non-parametric coordinates.

mtllib Shovel.mtl
g default
v -0.011405 0.333488 -0.010955
v -0.022707 0.333488 -0.015636
v -0.034009 0.333488 -0.010955
v -0.038690 0.333488 0.000347
v -0.034009 0.333488 0.011649
v -0.022707 0.333488 0.016330
v -0.011405 0.333488 0.011649
v -0.006724 0.333488 0.000347
v 0.000041 1.687192 -0.022401
v -0.022707 1.687192 -0.031823
v -0.045455 1.687192 -0.022401
v -0.054877 1.687192 0.000347
v -0.045455 1.687192 0.023095
v -0.022707 1.687192 0.032517
v 0.000041 1.687192 0.023095
v 0.009463 1.687192 0.000347
v -0.022707 0.333488 0.000347
v -0.022707 1.687192 0.000347
v 0.000041 0.663005 -0.022401
v -0.022707 0.663005 -0.031823
v -0.045455 0.663005 -0.022401
v -0.054877 0.663005 0.000347
v -0.045455 0.663005 0.023095
v -0.022707 0.663005 0.032517
v 0.000041 0.663005 0.023095
v 0.009463 0.663005 0.000347
v -0.034646 0.476181 -0.187505
v -0.026803 0.476181 -0.187505
v -0.010932 0.069431 -0.137497
v -0.002260 0.069431 -0.137497
v -0.030446 0.476181 0.000347
v -0.010127 0.476181 0.000347
v 0.012677 0.000000 0.000347
v 0.006485 0.000000 0.000347
v -0.000185 0.024841 -0.084113
v 0.007059 0.024756 -0.084144
v -0.024397 0.476181 -0.093579
v -0.035574 0.476181 -0.093579
v -0.022405 0.238090 0.000347
v -0.030753 0.238090 -0.093579
v -0.031493 0.238090 -0.187505
v -0.041560 0.238090 -0.187505
v -0.052323 0.238090 -0.093579
v -0.053381 0.238090 0.000347
v -0.049228 0.357136 -0.187505
v -0.039298 0.357136 -0.187505
v -0.030400 0.357136 -0.093579
v -0.002727 0.357136 0.000347
v -0.043696 0.357136 0.000347
v -0.048520 0.357136 -0.093579
v -0.026691 0.119045 0.000347
v -0.026160 0.119408 -0.093437
v -0.016871 0.129268 -0.179571
v -0.027044 0.127603 -0.180849
v -0.040457 0.119045 -0.093579
v -0.054889 0.119045 0.000347
v -0.034646 0.476181 0.188199
v -0.026803 0.476181 0.188199
v -0.010932 0.069431 0.138191
v -0.002260 0.069431 0.138191
v -0.000185 0.024841 0.084807
v 0.007059 0.024756 0.084838
v -0.024397 0.476181 0.094273
v -0.035574 0.476181 0.094273
v -0.030753 0.238090 0.094273
v -0.031493 0.238090 0.188199
v -0.041560 0.238090 0.188199
v -0.052323 0.238090 0.094273
v -0.049228 0.357136 0.188199
v -0.039298 0.357136 0.188199
v -0.030400 0.357136 0.094273
v -0.048520 0.357136 0.094273
v -0.026160 0.119408 0.094130
v -0.016871 0.129268 0.180264
v -0.027044 0.127603 0.181543
v -0.040457 0.119045 0.094273
vt 0.610485 0.045765
vt 0.500000 0.000000
vt 0.389515 0.045765
vt 0.343750 0.156250
vt 0.389515 0.266735
vt 0.500000 0.312500
vt 0.610485 0.266735
vt 0.656250 0.156250
vt 0.375000 0.312500
vt 0.406250 0.312500
vt 0.437500 0.312500
vt 0.468750 0.312500
vt 0.500000 0.312500
vt 0.531250 0.312500
vt 0.562500 0.312500
vt 0.593750 0.312500
vt 0.625000 0.312500
vt 0.375000 0.688440
vt 0.406250 0.688440
vt 0.437500 0.688440
vt 0.468750 0.688440
vt 0.500000 0.688440
vt 0.531250 0.688440
vt 0.562500 0.688440
vt 0.593750 0.688440
vt 0.625000 0.688440
vt 0.610485 0.733265
vt 0.500000 0.687500
vt 0.389515 0.733265
vt 0.343750 0.843750
vt 0.389515 0.954235
vt 0.500000 1.000000
vt 0.610485 0.954235
vt 0.656250 0.843750
vt 0.500000 0.150000
vt 0.500000 0.837500
vt 0.625000 0.404011
vt 0.375000 0.404011
vt 0.406250 0.404011
vt 0.437500 0.404011
vt 0.468750 0.404011
vt 0.500000 0.404011
vt 0.531250 0.404011
vt 0.562500 0.404011
vt 0.593750 0.404011
vt 0.375000 0.375000
vt 0.625000 0.375000
vt 0.625000 0.437500
vt 0.375000 0.437500
vt 0.625000 0.562500
vt 0.625000 0.625000
vt 0.375000 0.625000
vt 0.375000 0.562500
vt 0.625000 0.812500
vt 0.625000 0.875000
vt 0.375000 0.875000
vt 0.375000 0.812500
vt 0.812500 0.187500
vt 0.750000 0.187500
vt 0.750000 0.125000
vt 0.812500 0.125000
vt 0.250000 0.187500
vt 0.187500 0.187500
vt 0.187500 0.125000
vt 0.250000 0.125000
vt 0.625000 0.750000
vt 0.375000 0.750000
vt 0.875000 0.187500
vt 0.875000 0.125000
vt 0.625000 0.500000
vt 0.375000 0.500000
vt 0.125000 0.125000
vt 0.125000 0.187500
vt 0.750000 0.062500
vt 0.812500 0.062500
vt 0.875000 0.062500
vt 0.625000 0.687500
vt 0.375000 0.687500
vt 0.125000 0.062500
vt 0.187500 0.062500
vt 0.250000 0.062500
vt 0.812500 0.250000
vt 0.875000 0.250000
vt 0.750000 0.250000
vt 0.187500 0.250000
vt 0.250000 0.250000
vt 0.125000 0.250000
vt 0.750000 0.000000
vt 0.812500 0.000000
vt 0.875000 0.000000
vt 0.125000 0.000000
vt 0.187500 0.000000
vt 0.250000 0.000000
vt 0.375000 0.375000
vt 0.375000 0.437500
vt 0.625000 0.437500
vt 0.625000 0.375000
vt 0.625000 0.562500
vt 0.375000 0.562500
vt 0.375000 0.625000
vt 0.625000 0.625000
vt 0.625000 0.812500
vt 0.375000 0.812500
vt 0.375000 0.875000
vt 0.625000 0.875000
vt 0.812500 0.187500
vt 0.812500 0.125000
vt 0.750000 0.125000
vt 0.750000 0.187500
vt 0.250000 0.187500
vt 0.250000 0.125000
vt 0.187500 0.125000
vt 0.187500 0.187500
vt 0.625000 0.750000
vt 0.375000 0.750000
vt 0.875000 0.187500
vt 0.875000 0.125000
vt 0.375000 0.500000
vt 0.625000 0.500000
vt 0.125000 0.125000
vt 0.125000 0.187500
vt 0.812500 0.062500
vt 0.750000 0.062500
vt 0.875000 0.062500
vt 0.375000 0.687500
vt 0.625000 0.687500
vt 0.125000 0.062500
vt 0.187500 0.062500
vt 0.250000 0.062500
vt 0.812500 0.250000
vt 0.875000 0.250000
vt 0.750000 0.250000
vt 0.187500 0.250000
vt 0.250000 0.250000
vt 0.125000 0.250000
vt 0.812500 0.000000
vt 0.750000 0.000000
vt 0.875000 0.000000
vt 0.125000 0.000000
vt 0.187500 0.000000
vt 0.250000 0.000000
vn 0.707075 -0.009441 -0.707076
vn 0.000000 -0.009441 -0.999955
vn 0.000000 0.011778 -0.999931
vn 0.707058 0.011778 -0.707058
vn -0.707075 -0.009441 -0.707076
vn -0.707058 0.011778 -0.707058
vn -0.999956 -0.009441 0.000000
vn -0.999931 0.011778 0.000000
vn -0.707075 -0.009441 0.707076
vn -0.707058 0.011778 0.707058
vn -0.000000 -0.009441 0.999955
vn -0.000000 0.011778 0.999931
vn 0.707075 -0.009441 0.707076
vn 0.707058 0.011778 0.707058
vn 0.999956 -0.009441 -0.000000
vn 0.999931 0.011778 0.000000
vn 0.000000 -0.060942 -0.998141
vn 0.705792 -0.060942 -0.705793
vn 0.000000 -1.000000 0.000000
vn -0.705792 -0.060942 -0.705793
vn -0.998141 -0.060942 0.000000
vn -0.705792 -0.060942 0.705793
vn -0.000000 -0.060942 0.998141
vn 0.705792 -0.060942 0.705793
vn 0.998141 -0.060942 -0.000000
vn 0.000000 1.000000 0.000000
vn -0.970726 0.240189 0.000000
vn 0.992308 0.123790 0.000000
vn 0.987300 0.074800 -0.140154
vn -0.977118 0.211183 0.025353
vn 0.986845 -0.022828 -0.160048
vn 0.992025 0.052934 -0.114384
vn -0.978078 -0.066604 -0.197302
vn -0.991427 0.049259 -0.121025
vn 0.964501 0.264051 0.003758
vn 0.965412 0.260728 -0.000000
vn -0.873109 -0.487526 0.000000
vn -0.869407 -0.473770 -0.140260
vn 0.991003 -0.031012 -0.130197
vn 0.999251 -0.038685 -0.000000
vn 0.999131 -0.041685 0.000000
vn 0.998148 0.007000 -0.060427
vn -0.996539 0.083133 0.000000
vn -0.997787 0.066338 0.004537
vn -0.997657 -0.028691 -0.062104
vn -0.999978 0.006558 0.000000
vn 0.967187 0.251690 0.034665
vn -0.852810 -0.456203 -0.254154
vn 0.989170 0.003317 -0.146734
vn -0.976322 0.191428 -0.100753
vn 0.987852 0.155397 -0.000000
vn 0.986465 0.161876 0.026151
vn 0.993362 0.100716 -0.055575
vn -0.946867 -0.200189 -0.251729
vn -0.966822 -0.227601 -0.115985
vn -0.972525 -0.232800 -0.000000
vn -0.977118 0.211183 -0.025353
vn 0.987300 0.074800 0.140155
vn 0.986845 -0.022828 0.160048
vn -0.991427 0.049259 0.121025
vn -0.978078 -0.066604 0.197302
vn 0.992025 0.052934 0.114385
vn 0.964501 0.264051 -0.003758
vn -0.869408 -0.473770 0.140260
vn 0.991003 -0.031012 0.130197
vn 0.998148 0.007000 0.060427
vn -0.997657 -0.028691 0.062104
vn -0.997787 0.066338 -0.004537
vn 0.967187 0.251690 -0.034665
vn -0.852810 -0.456203 0.254154
vn -0.976322 0.191428 0.100753
vn 0.989170 0.003317 0.146734
vn 0.986465 0.161876 -0.026151
vn 0.993362 0.100716 0.055575
vn -0.946867 -0.200189 0.251729
vn -0.966822 -0.227601 0.115985
s 1
g Shovel
usemtl initialShadingGroup
f 19/38/1 20/39/2 10/19/3 9/18/4
f 20/39/2 21/40/5 11/20/6 10/19/3
f 21/40/5 22/41/7 12/21/8 11/20/6
f 22/41/7 23/42/9 13/22/10 12/21/8
f 23/42/9 24/43/11 14/23/12 13/22/10
f 24/43/11 25/44/13 15/24/14 14/23/12
f 25/44/13 26/45/15 16/25/16 15/24/14
f 26/45/15 19/37/1 9/26/4 16/25/16
f 2/2/17 1/1/18 17/35/19
f 3/3/20 2/2/17 17/35/19
f 4/4/21 3/3/20 17/35/19
f 5/5/22 4/4/21 17/35/19
f 6/6/23 5/5/22 17/35/19
f 7/7/24 6/6/23 17/35/19
f 8/8/25 7/7/24 17/35/19
f 1/1/18 8/8/25 17/35/19
f 9/33/4 10/32/3 18/36/26
f 10/32/3 11/31/6 18/36/26
f 11/31/6 12/30/8 18/36/26
f 12/30/8 13/29/10 18/36/26
f 13/29/10 14/28/12 18/36/26
f 14/28/12 15/27/14 18/36/26
f 15/27/14 16/34/16 18/36/26
f 16/34/16 9/33/4 18/36/26
f 1/9/18 2/10/17 20/39/2 19/38/1
f 2/10/17 3/11/20 21/40/5 20/39/2
f 3/11/20 4/12/21 22/41/7 21/40/5
f 4/12/21 5/13/22 23/42/9 22/41/7
f 5/13/22 6/14/23 24/43/11 23/42/9
f 6/14/23 7/15/24 25/44/13 24/43/11
f 7/15/24 8/16/25 26/45/15 25/44/13
f 8/16/25 1/17/18 19/37/1 26/45/15
s 2
f 31/46/27 32/47/28 37/48/29 38/49/30
f 46/50/31 41/51/32 42/52/33 45/53/34
f 36/54/35 33/55/36 34/56/37 35/57/38
f 47/58/39 48/59/40 39/60/41 40/61/42
f 49/62/43 50/63/44 43/64/45 44/65/46
f 30/66/47 36/54/35 35/57/38 29/67/48
f 46/68/31 47/58/39 40/61/42 41/69/32
f 37/48/29 28/70/49 27/71/50 38/49/30
f 42/72/33 43/64/45 50/63/44 45/73/34
f 40/61/42 39/60/41 51/74/51 52/75/52
f 41/69/32 40/61/42 52/75/52 53/76/53
f 41/51/32 53/77/53 54/78/54 42/52/33
f 54/79/54 55/80/55 43/64/45 42/72/33
f 44/65/46 43/64/45 55/80/55 56/81/56
f 28/70/49 46/50/31 45/53/34 27/71/50
f 37/82/29 47/58/39 46/68/31 28/83/49
f 32/84/28 48/59/40 47/58/39 37/82/29
f 38/85/30 50/63/44 49/62/43 31/86/27
f 45/73/34 50/63/44 38/85/30 27/87/50
f 52/75/52 51/74/51 33/88/36 36/89/35
f 53/76/53 52/75/52 36/89/35 30/90/47
f 53/77/53 30/66/47 29/67/48 54/78/54
f 29/91/48 35/92/38 55/80/55 54/79/54
f 56/81/56 55/80/55 35/92/38 34/93/37
f 31/94/27 64/95/57 63/96/58 32/97/28
f 70/98/59 69/99/60 67/100/61 66/101/62
f 62/102/63 61/103/64 34/104/37 33/105/36
f 71/106/65 65/107/66 39/108/41 48/109/40
f 49/110/43 44/111/46 68/112/67 72/113/68
f 60/114/69 59/115/70 61/103/64 62/102/63
f 70/116/59 66/117/62 65/107/66 71/106/65
f 63/96/58 64/95/57 57/118/71 58/119/72
f 67/120/61 69/121/60 72/113/68 68/112/67
f 65/107/66 73/122/73 51/123/51 39/108/41
f 66/117/62 74/124/74 73/122/73 65/107/66
f 66/101/62 67/100/61 75/125/75 74/126/74
f 75/127/75 67/120/61 68/112/67 76/128/76
f 44/111/46 56/129/56 76/128/76 68/112/67
f 58/119/72 57/118/71 69/99/60 70/98/59
f 63/130/58 58/131/72 70/116/59 71/106/65
f 32/132/28 63/130/58 71/106/65 48/109/40
f 64/133/57 31/134/27 49/110/43 72/113/68
f 69/121/60 57/135/71 64/133/57 72/113/68
f 73/122/73 62/136/63 33/137/36 51/123/51
f 74/124/74 60/138/69 62/136/63 73/122/73
f 74/126/74 75/125/75 59/115/70 60/114/69
f 59/139/70 75/127/75 76/128/76 61/140/64
f 56/129/56 34/141/37 61/140/64 76/128/76
