# This file uses centimeters as units for non-parametric coordinates.

mtllib Shovel.mtl
g default
v -0.011405 0.333488 -0.010955
v -0.022707 0.333488 -0.015636
v -0.034009 0.333488 -0.010955
v -0.038690 0.333488 0.000347
v -0.034009 0.333488 0.011649
v -0.022707 0.333488 0.016330
v -0.011405 0.333488 0.011649
v -0.006724 0.333488 0.000347
v 0.000041 1.687192 -0.022401
v -0.022707 1.687192 -0.031823
v -0.045455 1.687192 -0.022401
v -0.054877 1.687192 0.000347
v -0.045455 1.687192 0.023095
v -0.022707 1.687192 0.032517
v 0.000041 1.687192 0.023095
v 0.009463 1.687192 0.000347
v -0.022707 0.333488 0.000347
v -0.022707 1.687192 0.000347
v 0.000041 0.663005 -0.022401
v -0.022707 0.663005 -0.031823
v -0.045455 0.663005 -0.022401
v -0.054877 0.663005 0.000347
v -0.045455 0.663005 0.023095
v -0.022707 0.663005 0.032517
v 0.000041 0.663005 0.023095
v 0.009463 0.663005 0.000347
v -0.034646 0.476181 -0.187505
v -0.026803 0.476181 -0.187505
v -0.010932 0.069431 -0.137497
v -0.002260 0.069431 -0.137497
v -0.030446 0.476181 0.000347
v -0.010127 0.476181 0.000347
v 0.012677 0.000000 0.000347
v 0.006485 0.000000 0.000347
v -0.000185 0.024841 -0.084113
v 0.007059 0.024756 -0.084144
v -0.024397 0.476181 -0.093579
v -0.035574 0.476181 -0.093579
v -0.022405 0.238090 0.000347
v -0.030753 0.238090 -0.093579
v -0.031493 0.238090 -0.187505
v -0.041560 0.238090 -0.187505
v -0.052323 0.238090 -0.093579
v -0.053381 0.238090 0.000347
v -0.049228 0.357136 -0.187505
v -0.039298 0.357136 -0.187505
v -0.030400 0.357136 -0.093579
v -0.002727 0.357136 0.000347
v -0.043696 0.357136 0.000347
v -0.048520 0.357136 -0.093579
v -0.026691 0.119045 0.000347
v -0.026160 0.119408 -0.093437
v -0.016871 0.129268 -0.179571
v -0.027044 0.127603 -0.180849
v -0.040457 0.119045 -0.093579
v -0.054889 0.119045 0.000347
v -0.034646 0.476181 0.188199
v -0.026803 0.476181 0.188199
v -0.010932 0.069431 0.138191
v -0.002260 0.069431 0.138191
v -0.000185 0.024841 0.084807
v 0.007059 0.024756 0.084838
v -0.024397 0.476181 0.094273
v -0.035574 0.476181 0.094273
v -0.030753 0.238090 0.094273
v -0.031493 0.238090 0.188199
v -0.041560 0.238090 0.188199
v -0.052323 0.238090 0.094273
v -0.049228 0.357136 0.188199
v -0.039298 0.357136 0.188199
v -0.030400 0.357136 0.094273
v -0.048520 0.357136 0.094273
v -0.026160 0.119408 0.094130
v -0.016871 0.129268 0.180264
v -0.027044 0.127603 0.181543
v -0.040457 0.119045 0.094273
vt 0.931115 0.018240
vt 0.931114 0.009271
vt 0.924771 0.002930
vt 0.915802 0.002931
vt 0.909460 0.009273
vt 0.909461 0.018243
vt 0.915804 0.024584
vt 0.924773 0.024583
vt 0.002934 0.093355
vt 0.002942 0.111438
vt 0.002951 0.129511
vt 0.002960 0.147569
vt 0.002939 0.021002
vt 0.002933 0.039085
vt 0.002930 0.057174
vt 0.002930 0.075266
vt 0.920287 0.013757
vt 0.961221 0.141997
vt 0.753446 0.093239
vt 0.753826 0.111251
vt 0.754460 0.129267
vt 0.755349 0.003182
vt 0.754465 0.021198
vt 0.753831 0.039210
vt 0.753448 0.057220
vt 0.753320 0.075229
vt 0.498361 0.149270
vt 0.777481 0.167861
vt 0.708615 0.157386
vt 0.708617 0.149191
vt 0.091013 0.429563
vt 0.253094 0.469767
vt 0.253862 0.462425
vt 0.636564 0.237988
vt 0.338613 0.351595
vt 0.357213 0.289480
vt 0.991306 0.114525
vt 0.561250 0.488329
vt 0.090801 0.360581
vt 0.089847 0.289492
vt 0.177737 0.289488
vt 0.178192 0.359199
vt 0.498398 0.237017
vt 0.567600 0.237513
vt 0.567445 0.324798
vt 0.498435 0.324257
vt 0.118650 0.482203
vt 0.600575 0.453820
vt 0.639749 0.155609
vt 0.636675 0.149907
vt 0.265306 0.289485
vt 0.265089 0.358020
vt 0.172413 0.472168
vt 0.172038 0.464561
vt 0.567089 0.412703
vt 0.498471 0.410426
vt 0.429080 0.149793
vt 0.003235 0.219423
vt 0.091000 0.149422
vt 0.970395 0.452774
vt 0.360235 0.326016
vt 0.974240 0.364609
vt 0.338607 0.227368
vt 0.435758 0.488382
vt 0.090794 0.218403
vt 0.178186 0.219778
vt 0.429425 0.324856
vt 0.429196 0.237572
vt 0.305022 0.188020
vt 0.980318 0.230245
vt 0.360048 0.150024
vt 0.995835 0.537872
vt 0.265083 0.220949
vt 0.976641 0.283929
vt 0.365144 0.408427
vt 0.429855 0.412761
vt 0.755346 0.147288
vt 0.939430 0.132967
vt 0.002947 0.002930
vt 0.983012 0.151026
vt 0.970245 0.163790
vt 0.983014 0.132973
vt 0.970250 0.120206
vt 0.952197 0.120204
vt 0.939428 0.151020
vt 0.952192 0.163787
vt 0.994425 0.075189
vt 0.994593 0.084211
vt 0.994584 0.066171
vt 0.995070 0.057173
vt 0.995885 0.048216
vt 0.997070 0.111107
vt 0.997034 0.039317
vt 0.995913 0.102188
vt 0.995088 0.093217
vt 0.969034 0.283554
vt 0.396404 0.453907
vt 0.915218 0.149909
vt 0.360233 0.238105
vt 0.966899 0.365378
vt 0.846351 0.149216
vt 0.987554 0.179150
vt 0.498512 0.507580
vt 0.777483 0.152964
vt 0.631797 0.408314
vt 0.118730 0.475845
vt 0.341258 0.465921
vt 0.636636 0.325900
vt 0.567643 0.149734
vt 0.426955 0.485642
vt 0.067635 0.483082
vt 0.259344 0.157371
vt 0.986676 0.230165
vt 0.002930 0.150386
vt 0.977636 0.452016
vt 0.178788 0.150757
vt 0.846350 0.157411
vt 0.992865 0.179061
vt 0.002930 0.491373
vt 0.003015 0.289496
vt 0.259356 0.421599
vt 0.305031 0.390945
vt 0.340500 0.473162
vt 0.178801 0.428220
vt 0.003241 0.359570
vt 0.002942 0.428607
vt 0.067546 0.488392
vt 0.990116 0.538471
vt 0.915217 0.155659
vt 0.995846 0.114445
vt 0.003010 0.486834
vt 0.639750 0.149859
vt 0.426357 0.491361
vn 0.707075 -0.009441 -0.707076
vn 0.000000 -0.009441 -0.999955
vn 0.000000 0.011778 -0.999931
vn 0.707058 0.011778 -0.707058
vn -0.707075 -0.009441 -0.707076
vn -0.707058 0.011778 -0.707058
vn -0.999956 -0.009441 0.000000
vn -0.999931 0.011778 0.000000
vn -0.707075 -0.009441 0.707076
vn -0.707058 0.011778 0.707058
vn -0.000000 -0.009441 0.999955
vn -0.000000 0.011778 0.999931
vn 0.707075 -0.009441 0.707076
vn 0.707058 0.011778 0.707058
vn 0.999956 -0.009441 -0.000000
vn 0.999931 0.011778 0.000000
vn 0.000000 -0.060942 -0.998141
vn 0.705792 -0.060942 -0.705793
vn 0.000000 -1.000000 0.000000
vn -0.705792 -0.060942 -0.705793
vn -0.998141 -0.060942 0.000000
vn -0.705792 -0.060942 0.705793
vn -0.000000 -0.060942 0.998141
vn 0.705792 -0.060942 0.705793
vn 0.998141 -0.060942 -0.000000
vn 0.000000 1.000000 0.000000
vn -0.970726 0.240189 0.000000
vn 0.992308 0.123790 0.000000
vn 0.987300 0.074800 -0.140154
vn -0.977118 0.211183 0.025353
vn 0.986845 -0.022828 -0.160048
vn 0.992025 0.052934 -0.114384
vn -0.978078 -0.066604 -0.197302
vn -0.991427 0.049259 -0.121025
vn 0.964501 0.264051 0.003758
vn 0.965412 0.260728 -0.000000
vn -0.873109 -0.487526 0.000000
vn -0.869407 -0.473770 -0.140260
vn 0.991003 -0.031012 -0.130197
vn 0.999251 -0.038685 -0.000000
vn 0.999131 -0.041685 0.000000
vn 0.998148 0.007000 -0.060427
vn -0.996539 0.083133 0.000000
vn -0.997787 0.066338 0.004537
vn -0.997657 -0.028691 -0.062104
vn -0.999978 0.006558 0.000000
vn 0.967187 0.251690 0.034665
vn -0.852810 -0.456203 -0.254154
vn 0.989170 0.003317 -0.146734
vn -0.976322 0.191428 -0.100753
vn 0.987852 0.155397 -0.000000
vn 0.986465 0.161876 0.026151
vn 0.993362 0.100716 -0.055575
vn -0.946867 -0.200189 -0.251729
vn -0.966822 -0.227601 -0.115985
vn -0.972525 -0.232800 -0.000000
vn -0.977118 0.211183 -0.025353
vn 0.987300 0.074800 0.140155
vn 0.986845 -0.022828 0.160048
vn -0.991427 0.049259 0.121025
vn -0.978078 -0.066604 0.197302
vn 0.992025 0.052934 0.114385
vn 0.964501 0.264051 -0.003758
vn -0.869408 -0.473770 0.140260
vn 0.991003 -0.031012 0.130197
vn 0.998148 0.007000 0.060427
vn -0.997657 -0.028691 0.062104
vn -0.997787 0.066338 -0.004537
vn 0.967187 0.251690 -0.034665
vn -0.852810 -0.456203 0.254154
vn -0.976322 0.191428 0.100753
vn 0.989170 0.003317 0.146734
vn 0.986465 0.161876 -0.026151
vn 0.993362 0.100716 0.055575
vn -0.946867 -0.200189 0.251729
vn -0.966822 -0.227601 0.115985
s 1
g Shovel
usemtl initialShadingGroup
f 19/19/1 20/20/2 10/10/3 9/9/4
f 20/20/2 21/21/5 11/11/6 10/10/3
f 21/21/5 22/77/7 12/12/8 11/11/6
f 22/22/7 23/23/9 13/13/10 12/79/8
f 23/23/9 24/24/11 14/14/12 13/13/10
f 24/24/11 25/25/13 15/15/14 14/14/12
f 25/25/13 26/26/15 16/16/16 15/15/14
f 26/26/15 19/19/1 9/9/4 16/16/16
f 2/2/17 1/1/18 17/17/19
f 3/3/20 2/2/17 17/17/19
f 4/4/21 3/3/20 17/17/19
f 5/5/22 4/4/21 17/17/19
f 6/6/23 5/5/22 17/17/19
f 7/7/24 6/6/23 17/17/19
f 8/8/25 7/7/24 17/17/19
f 1/1/18 8/8/25 17/17/19
f 9/81/4 10/86/3 18/18/26
f 10/86/3 11/85/6 18/18/26
f 11/85/6 12/78/8 18/18/26
f 12/78/8 13/84/10 18/18/26
f 13/84/10 14/83/12 18/18/26
f 14/83/12 15/82/14 18/18/26
f 15/82/14 16/80/16 18/18/26
f 16/80/16 9/81/4 18/18/26
f 1/88/18 2/95/17 20/20/2 19/19/1
f 2/95/17 3/94/20 21/21/5 20/20/2
f 3/94/20 4/92/21 22/77/7 21/21/5
f 4/93/21 5/91/22 23/23/9 22/22/7
f 5/91/22 6/90/23 24/24/11 23/23/9
f 6/90/23 7/89/24 25/25/13 24/24/11
f 7/89/24 8/87/25 26/26/15 25/25/13
f 8/87/25 1/88/18 19/19/1 26/26/15
s 2
f 31/104/27 32/28/28 37/29/29 38/30/30
f 46/123/31 41/32/32 42/33/33 45/107/34
f 36/127/35 33/119/36 34/131/37 35/111/38
f 47/39/39 48/40/40 39/41/41 40/42/42
f 49/43/43 50/44/44 43/45/45 44/46/46
f 30/47/47 36/127/35 35/111/38 29/106/48
f 46/31/31 47/39/39 40/42/42 41/124/32
f 37/29/29 28/49/49 27/132/50 38/30/30
f 42/108/33 43/45/45 50/44/44 45/34/34
f 40/42/42 39/41/41 51/51/51 52/52/52
f 41/124/32 40/42/42 52/52/52 53/121/53
f 41/32/32 53/53/53 54/54/54 42/33/33
f 54/105/54 55/55/55 43/45/45 42/108/33
f 44/46/46 43/45/45 55/55/55 56/56/56
f 28/133/49 46/123/31 45/107/34 27/110/50
f 37/125/29 47/39/39 46/31/31 28/126/49
f 32/120/28 48/40/40 47/39/39 37/125/29
f 38/109/30 50/44/44 49/43/43 31/27/27
f 45/34/34 50/44/44 38/109/30 27/50/50
f 52/52/52 51/51/51 33/36/36 36/35/35
f 53/121/53 52/52/52 36/35/35 30/122/47
f 53/53/53 30/47/47 29/106/48 54/54/54
f 29/48/48 35/38/38 55/55/55 54/105/54
f 56/56/56 55/55/55 35/38/38 34/103/37
f 31/104/27 64/101/57 63/117/58 32/28/28
f 70/115/59 69/60/60 67/100/61 66/62/62
f 62/118/63 61/102/64 34/37/37 33/130/36
f 71/65/65 65/66/66 39/41/41 48/40/40
f 49/43/43 44/46/46 68/67/67 72/68/68
f 60/113/69 59/70/70 61/102/64 62/118/63
f 70/59/59 66/116/62 65/66/66 71/65/65
f 63/117/58 64/101/57 57/98/71 58/129/72
f 67/61/61 69/99/60 72/68/68 68/67/67
f 65/66/66 73/73/73 51/51/51 39/41/41
f 66/116/62 74/112/74 73/73/73 65/66/66
f 66/62/62 67/100/61 75/96/75 74/74/74
f 75/75/75 67/61/61 68/67/67 76/76/76
f 44/46/46 56/56/56 76/76/76 68/67/67
f 58/72/72 57/128/71 69/60/60 70/115/59
f 63/58/58 58/114/72 70/59/59 71/65/65
f 32/120/28 63/58/58 71/65/65 48/40/40
f 64/57/57 31/27/27 49/43/43 72/68/68
f 69/99/60 57/71/71 64/57/57 72/68/68
f 73/73/73 62/63/63 33/36/36 51/51/51
f 74/112/74 60/69/69 62/63/63 73/73/73
f 74/74/74 75/96/75 59/70/70 60/113/69
f 59/97/70 75/75/75 76/76/76 61/64/64
f 56/56/56 34/103/37 61/64/64 76/76/76
