# This file uses centimeters as units for non-parametric coordinates.

mtllib Pot1.mtl
g default
v 0.033567 -0.000000 -0.019380
v 0.019380 -0.000000 -0.033567
v 0.000000 -0.000000 -0.038760
v -0.019380 -0.000000 -0.033567
v -0.033567 -0.000000 -0.019380
v -0.038760 -0.000000 0.000000
v -0.033567 -0.000000 0.019380
v -0.019380 -0.000000 0.033567
v 0.000000 -0.000000 0.038760
v 0.019380 -0.000000 0.033567
v 0.033567 -0.000000 0.019380
v 0.038760 -0.000000 0.000000
v 0.064846 -0.000000 -0.037439
v 0.037439 -0.000000 -0.064846
v 0.000000 -0.000000 -0.074878
v -0.037439 -0.000000 -0.064846
v -0.064847 -0.000000 -0.037439
v -0.074878 -0.000000 0.000000
v -0.064847 -0.000000 0.037439
v -0.037439 -0.000000 0.064846
v 0.000000 -0.000000 0.074878
v 0.037439 -0.000000 0.064846
v 0.064846 -0.000000 0.037439
v 0.074878 -0.000000 0.000000
v 0.091707 0.033819 -0.052947
v 0.052947 0.033819 -0.091707
v 0.000000 0.033819 -0.105894
v -0.052947 0.033819 -0.091707
v -0.091707 0.033819 -0.052947
v -0.105894 0.033819 0.000000
v -0.091707 0.033819 0.052947
v -0.052947 0.033819 0.091707
v 0.000000 0.033819 0.105894
v 0.052947 0.033819 0.091707
v 0.091707 0.033819 0.052947
v 0.105894 0.033819 0.000000
v 0.112317 0.078519 -0.064846
v 0.064847 0.078519 -0.112317
v 0.000000 0.078519 -0.129693
v -0.064847 0.078519 -0.112317
v -0.112317 0.078519 -0.064846
v -0.129693 0.078519 0.000000
v -0.112317 0.078519 0.064846
v -0.064847 0.078519 0.112317
v 0.000000 0.078519 0.129693
v 0.064847 0.078519 0.112317
v 0.112317 0.078519 0.064846
v 0.129693 0.078519 0.000000
v 0.110161 0.205135 -0.063601
v 0.063601 0.205135 -0.110161
v 0.000000 0.205135 -0.127203
v -0.063601 0.205135 -0.110161
v -0.110161 0.205135 -0.063601
v -0.127203 0.205135 0.000000
v -0.110161 0.205135 0.063601
v -0.063601 0.205135 0.110161
v 0.000000 0.205135 0.127203
v 0.063601 0.205135 0.110161
v 0.110161 0.205135 0.063601
v 0.127203 0.205135 0.000000
v 0.094837 0.265974 -0.054754
v 0.054754 0.265974 -0.094837
v 0.000000 0.265974 -0.109508
v -0.054754 0.265974 -0.094837
v -0.094837 0.265974 -0.054754
v -0.109508 0.265974 0.000000
v -0.094837 0.265974 0.054754
v -0.054754 0.265974 0.094837
v 0.000000 0.265974 0.109508
v 0.054754 0.265974 0.094837
v 0.094837 0.265974 0.054754
v 0.109508 0.265974 0.000000
v 0.087911 0.322667 -0.050755
v 0.050755 0.322667 -0.087911
v 0.000000 0.322667 -0.101511
v -0.050755 0.322667 -0.087911
v -0.087911 0.322667 -0.050755
v -0.101511 0.322667 0.000000
v -0.087911 0.322667 0.050755
v -0.050755 0.322667 0.087911
v 0.000000 0.322667 0.101511
v 0.050755 0.322667 0.087911
v 0.087911 0.322667 0.050755
v 0.101511 0.322667 0.000000
v 0.091707 0.369365 -0.052947
v 0.052947 0.369365 -0.091707
v 0.000000 0.369365 -0.105894
v -0.052947 0.369365 -0.091707
v -0.091707 0.369365 -0.052947
v -0.105894 0.369365 0.000000
v -0.091707 0.369365 0.052947
v -0.052947 0.369365 0.091707
v 0.000000 0.369365 0.105894
v 0.052947 0.369365 0.091707
v 0.091707 0.369365 0.052947
v 0.105894 0.369365 0.000000
v 0.077547 0.369365 -0.044772
v 0.044772 0.369365 -0.077547
v 0.000000 0.369365 -0.089544
v -0.044772 0.369365 -0.077547
v -0.077548 0.369365 -0.044772
v -0.089544 0.369365 0.000000
v -0.077548 0.369365 0.044772
v -0.044772 0.369365 0.077547
v 0.000000 0.369365 0.089544
v 0.044772 0.369365 0.077547
v 0.077547 0.369365 0.044772
v 0.089544 0.369365 0.000000
v 0.000000 -0.000000 0.000000
v 0.077547 0.103609 -0.044772
v 0.044772 0.103609 -0.077547
v 0.023176 0.103610 -0.040142
v 0.040142 0.103610 -0.023176
v 0.000000 0.103609 -0.089544
v 0.000000 0.103610 -0.046351
v -0.044772 0.103609 -0.077547
v -0.023176 0.103610 -0.040142
v -0.077548 0.103609 -0.044772
v -0.040142 0.103610 -0.023176
v -0.089544 0.103609 0.000000
v -0.046351 0.103610 0.000000
v -0.077548 0.103609 0.044772
v -0.040142 0.103610 0.023176
v -0.044772 0.103609 0.077547
v -0.023176 0.103610 0.040142
v 0.000000 0.103609 0.089544
v 0.000000 0.103610 0.046351
v 0.044772 0.103609 0.077547
v 0.023176 0.103610 0.040142
v 0.077547 0.103609 0.044772
v 0.040142 0.103610 0.023176
v 0.089544 0.103609 0.000000
v 0.046351 0.103610 0.000000
v 0.000000 0.103610 0.000000
v 0.091102 0.240724 -0.052598
v 0.052598 0.240724 -0.091102
v 0.000000 0.240724 -0.105195
v -0.052598 0.240724 -0.091102
v -0.091102 0.240724 -0.052598
v -0.105195 0.240724 0.000000
v -0.091102 0.240724 0.052598
v -0.052598 0.240724 0.091102
v 0.000000 0.240724 0.105195
v 0.052598 0.240724 0.091102
v 0.091102 0.240724 0.052598
v 0.105195 0.240724 0.000000
v 0.084627 0.375759 -0.048859
v 0.048860 0.375759 -0.084627
v 0.000000 0.375759 -0.097719
v -0.048859 0.375759 -0.084627
v -0.084627 0.375759 -0.048859
v -0.097719 0.375759 0.000000
v -0.084627 0.375759 0.048859
v -0.048859 0.375759 0.084627
v 0.000000 0.375759 0.097719
v 0.048860 0.375759 0.084627
v 0.084627 0.375759 0.048859
v 0.097719 0.375759 0.000000
v 0.119202 0.113468 -0.068821
v 0.117718 0.174712 -0.067965
v 0.068821 0.113468 -0.119202
v 0.067965 0.174712 -0.117718
v 0.000000 0.113468 -0.137642
v 0.000000 0.174712 -0.135929
v -0.068821 0.113468 -0.119202
v -0.067965 0.174712 -0.117718
v -0.119202 0.113468 -0.068821
v -0.117718 0.174712 -0.067965
v -0.137642 0.113468 0.000000
v -0.135929 0.174712 0.000000
v -0.119202 0.113468 0.068821
v -0.117718 0.174712 0.067965
v -0.068821 0.113468 0.119202
v -0.067965 0.174712 0.117718
v 0.000000 0.113468 0.137642
v 0.000000 0.174712 0.135929
v 0.068821 0.113468 0.119202
v 0.067965 0.174712 0.117718
v 0.119202 0.113468 0.068821
v 0.117718 0.174712 0.067965
v 0.137642 0.113468 0.000000
v 0.135929 0.174712 0.000000
vt 0.951133 0.294129
vt 0.938317 0.271930
vt 0.916118 0.259114
vt 0.890486 0.259114
vt 0.868288 0.271931
vt 0.855471 0.294129
vt 0.855472 0.319761
vt 0.868288 0.341960
vt 0.890486 0.354776
vt 0.916119 0.354776
vt 0.938317 0.341959
vt 0.951133 0.319761
vt 0.414600 0.317721
vt 0.374078 0.317583
vt 0.338903 0.337624
vt 0.318415 0.372509
vt 0.318080 0.412951
vt 0.338012 0.448144
vt 0.372716 0.468817
vt 0.413068 0.469286
vt 0.448232 0.449411
vt 0.468743 0.414524
vt 0.469090 0.373985
vt 0.449225 0.338623
vt 0.424857 0.273566
vt 0.360685 0.274143
vt 0.305513 0.306724
vt 0.274025 0.362436
vt 0.274555 0.426391
vt 0.306916 0.481524
vt 0.362482 0.513210
vt 0.426461 0.512809
vt 0.481606 0.480378
vt 0.513120 0.424712
vt 0.512660 0.360756
vt 0.480424 0.305511
vt 0.434105 0.228430
vt 0.457486 0.141286
vt 0.468183 0.112478
vt 0.317606 0.112867
vt 0.187412 0.188505
vt 0.112492 0.319098
vt 0.112902 0.469640
vt 0.188513 0.599810
vt 0.319070 0.674752
vt 0.469636 0.674396
vt 0.599811 0.598757
vt 0.674736 0.468185
vt 0.674358 0.317644
vt 0.598765 0.187443
vt 0.480849 0.070567
vt 0.307626 0.070236
vt 0.157452 0.156567
vt 0.070569 0.306413
vt 0.070246 0.479618
vt 0.156560 0.629781
vt 0.306391 0.716681
vt 0.479611 0.717025
vt 0.629782 0.630700
vt 0.716670 0.480860
vt 0.717006 0.307650
vt 0.630694 0.157471
vt 0.039367 0.960659
vt 0.002932 0.897591
vt 0.002930 0.824732
vt 0.039371 0.761649
vt 0.102456 0.725260
vt 0.175270 0.725273
vt 0.238337 0.761671
vt 0.274771 0.824739
vt 0.274774 0.897598
vt 0.238332 0.960681
vt 0.175247 0.997070
vt 0.102433 0.997057
vt 0.058129 0.941754
vt 0.028637 0.890604
vt 0.028680 0.831556
vt 0.058246 0.780445
vt 0.109409 0.750972
vt 0.168457 0.751021
vt 0.219575 0.780576
vt 0.249067 0.831726
vt 0.249024 0.890775
vt 0.219457 0.941885
vt 0.168295 0.971358
vt 0.109247 0.971309
vt 0.836606 0.170631
vt 0.805953 0.170635
vt 0.779405 0.155312
vt 0.764075 0.128768
vt 0.764070 0.098115
vt 0.779393 0.071567
vt 0.805937 0.056237
vt 0.836590 0.056233
vt 0.863138 0.071555
vt 0.878468 0.098099
vt 0.878473 0.128752
vt 0.863150 0.155300
vt 0.903302 0.306945
vt 0.821271 0.113434
vt 0.002930 0.002930
vt 0.002930 0.002930
vt 0.002930 0.002930
vt 0.002930 0.002930
vt 0.002930 0.002930
vt 0.002930 0.002930
vt 0.002930 0.002930
vt 0.002930 0.002930
vt 0.002930 0.002930
vt 0.002930 0.002930
vt 0.002930 0.002930
vt 0.002930 0.002930
vt 0.002930 0.002930
vt 0.002930 0.002930
vt 0.002930 0.002930
vt 0.002930 0.002930
vt 0.002930 0.002930
vt 0.002930 0.002930
vt 0.002930 0.002930
vt 0.002930 0.002930
vt 0.002930 0.002930
vt 0.002930 0.002930
vt 0.002930 0.002930
vt 0.002930 0.002930
vt 0.048763 0.951194
vt 0.015803 0.894094
vt 0.015822 0.828150
vt 0.048822 0.771061
vt 0.105937 0.738135
vt 0.171857 0.738166
vt 0.228941 0.771136
vt 0.261900 0.828236
vt 0.261881 0.894181
vt 0.228881 0.951269
vt 0.171766 0.984195
vt 0.105846 0.984164
vt 0.440237 0.199129
vt 0.452284 0.158642
vt 0.346070 0.230377
vt 0.270907 0.276112
vt 0.336714 0.201916
vt 0.228706 0.353226
vt 0.248539 0.256126
vt 0.230666 0.441067
vt 0.199312 0.347104
vt 0.276225 0.516181
vt 0.202134 0.450470
vt 0.353227 0.558529
vt 0.256216 0.538593
vt 0.441097 0.556679
vt 0.347102 0.587927
vt 0.516210 0.511061
vt 0.450462 0.585218
vt 0.558448 0.434014
vt 0.538579 0.531098
vt 0.556590 0.346186
vt 0.587850 0.440194
vt 0.511157 0.270961
vt 0.585147 0.336842
vt 0.531182 0.248607
vt 0.326903 0.160805
vt 0.219450 0.225403
vt 0.322733 0.143168
vt 0.158724 0.335041
vt 0.207010 0.212202
vt 0.160935 0.460322
vt 0.141334 0.329827
vt 0.225459 0.567721
vt 0.143260 0.464507
vt 0.335026 0.628511
vt 0.212244 0.580184
vt 0.460329 0.626421
vt 0.329814 0.645900
vt 0.567703 0.561846
vt 0.464483 0.644107
vt 0.628462 0.452264
vt 0.580169 0.575049
vt 0.626341 0.326991
vt 0.645865 0.457476
vt 0.561891 0.219516
vt 0.644014 0.322805
vt 0.575086 0.207067
vt 0.902175 0.194314
vt 0.850895 0.223930
vt 0.931776 0.143026
vt 0.931767 0.083810
vt 0.902152 0.032531
vt 0.850864 0.002930
vt 0.791647 0.002938
vt 0.740368 0.032553
vt 0.710767 0.083841
vt 0.710776 0.143058
vt 0.740391 0.194337
vt 0.791679 0.223938
vt 0.002930 0.002930
vt 0.002930 0.002930
vt 0.002930 0.002930
vt 0.002930 0.002930
vt 0.002930 0.002930
vt 0.002930 0.002930
vt 0.002930 0.002930
vt 0.002930 0.002930
vt 0.002930 0.002930
vt 0.002930 0.002930
vt 0.002930 0.002930
vt 0.002930 0.002930
vt 0.679601 0.107605
vt 0.498270 0.002930
vt 0.784296 0.288919
vt 0.784311 0.498286
vt 0.679643 0.679613
vt 0.498331 0.784314
vt 0.288956 0.784318
vt 0.107641 0.679641
vt 0.002952 0.498341
vt 0.002930 0.288985
vt 0.107587 0.107658
vt 0.288894 0.002950
vt 0.995704 0.331704
vt 0.995704 0.282186
vt 0.970945 0.374588
vt 0.928062 0.399347
vt 0.878544 0.399347
vt 0.835660 0.374588
vt 0.810900 0.331704
vt 0.810900 0.282186
vt 0.835659 0.239302
vt 0.878543 0.214543
vt 0.928061 0.214543
vt 0.970945 0.239302
vn 0.000002 -1.000000 -0.000001
vn 0.000001 -1.000000 -0.000002
vn 0.287856 -0.817652 -0.498582
vn 0.498581 -0.817653 -0.287856
vn 0.000000 -1.000000 -0.000003
vn 0.000000 -0.817652 -0.575713
vn -0.000001 -1.000000 -0.000002
vn -0.287856 -0.817652 -0.498582
vn -0.000002 -1.000000 -0.000001
vn -0.498582 -0.817652 -0.287856
vn -0.000003 -1.000000 0.000000
vn -0.575712 -0.817652 0.000000
vn -0.000002 -1.000000 0.000001
vn -0.498582 -0.817652 0.287856
vn -0.000001 -1.000000 0.000002
vn -0.287856 -0.817652 0.498582
vn 0.000000 -1.000000 0.000003
vn 0.000000 -0.817652 0.575713
vn 0.000001 -1.000000 0.000002
vn 0.287856 -0.817652 0.498582
vn 0.000002 -1.000000 0.000001
vn 0.498581 -0.817653 0.287856
vn 0.000003 -1.000000 0.000000
vn 0.575712 -0.817652 -0.000000
vn 0.417899 -0.549038 -0.723822
vn 0.723822 -0.549038 -0.417899
vn 0.000000 -0.549037 -0.835798
vn -0.417899 -0.549037 -0.723822
vn -0.723822 -0.549037 -0.417899
vn -0.835798 -0.549037 0.000000
vn -0.723822 -0.549037 0.417899
vn -0.417899 -0.549037 0.723822
vn 0.000000 -0.549037 0.835798
vn 0.417899 -0.549038 0.723822
vn 0.723822 -0.549038 0.417899
vn 0.835797 -0.549038 -0.000000
vn 0.467367 -0.355346 -0.809504
vn 0.809504 -0.355346 -0.467368
vn 0.000000 -0.355346 -0.934735
vn -0.467368 -0.355346 -0.809504
vn -0.809504 -0.355347 -0.467368
vn -0.934735 -0.355347 0.000000
vn -0.809504 -0.355347 0.467368
vn -0.467368 -0.355346 0.809504
vn 0.000000 -0.355346 0.934735
vn 0.467367 -0.355346 0.809504
vn 0.809504 -0.355346 0.467368
vn 0.934735 -0.355346 -0.000000
vn 0.831905 0.277928 -0.480302
vn 0.480301 0.277928 -0.831906
vn 0.487762 0.219891 -0.844829
vn 0.844829 0.219891 -0.487763
vn -0.000000 0.277927 -0.960602
vn 0.000000 0.219891 -0.975524
vn -0.480301 0.277927 -0.831906
vn -0.487762 0.219891 -0.844829
vn -0.831906 0.277927 -0.480301
vn -0.844830 0.219891 -0.487761
vn -0.960602 0.277928 -0.000000
vn -0.975524 0.219891 -0.000000
vn -0.831906 0.277927 0.480301
vn -0.844830 0.219891 0.487761
vn -0.480301 0.277927 0.831906
vn -0.487762 0.219891 0.844829
vn 0.000000 0.277927 0.960602
vn 0.000000 0.219891 0.975524
vn 0.480301 0.277928 0.831906
vn 0.487762 0.219891 0.844829
vn 0.831905 0.277928 0.480302
vn 0.844829 0.219891 0.487763
vn 0.960602 0.277928 0.000000
vn 0.975524 0.219892 -0.000000
vn 0.499669 0.036372 -0.865452
vn 0.865452 0.036372 -0.499669
vn -0.000000 0.036372 -0.999338
vn -0.499669 0.036373 -0.865453
vn -0.865453 0.036373 -0.499669
vn -0.999338 0.036372 -0.000000
vn -0.865453 0.036373 0.499669
vn -0.499669 0.036373 0.865452
vn 0.000000 0.036372 0.999338
vn 0.499669 0.036372 0.865452
vn 0.865452 0.036372 0.499669
vn 0.999338 0.036372 0.000000
vn 0.499332 0.051659 -0.864869
vn 0.864869 0.051658 -0.499333
vn -0.000000 0.051659 -0.998665
vn -0.499332 0.051659 -0.864869
vn -0.864869 0.051659 -0.499333
vn -0.998665 0.051659 0.000000
vn -0.864869 0.051659 0.499333
vn -0.499332 0.051659 0.864869
vn 0.000000 0.051659 0.998665
vn 0.499332 0.051659 0.864869
vn 0.864869 0.051658 0.499333
vn 0.998665 0.051658 -0.000000
vn 0.115222 0.991110 -0.066524
vn 0.066524 0.991110 -0.115223
vn -0.499346 -0.051138 0.864892
vn -0.864892 -0.051138 0.499346
vn -0.000000 0.991110 -0.133047
vn 0.000000 -0.051138 0.998692
vn -0.066523 0.991110 -0.115223
vn 0.499346 -0.051138 0.864892
vn -0.115223 0.991110 -0.066524
vn 0.864892 -0.051138 0.499347
vn -0.133047 0.991110 0.000000
vn 0.998692 -0.051138 -0.000000
vn -0.115223 0.991110 0.066524
vn 0.864892 -0.051138 -0.499347
vn -0.066523 0.991110 0.115223
vn 0.499346 -0.051138 -0.864892
vn -0.000000 0.991110 0.133047
vn 0.000000 -0.051138 -0.998692
vn 0.066524 0.991110 0.115222
vn -0.499346 -0.051138 -0.864892
vn 0.115222 0.991110 0.066523
vn -0.864892 -0.051138 -0.499346
vn 0.133048 0.991110 -0.000000
vn -0.998692 -0.051138 0.000000
vn -0.830867 0.282040 0.479702
vn -0.479701 0.282040 0.830867
vn 0.000003 1.000000 -0.000005
vn 0.000005 1.000000 -0.000003
vn 0.000000 0.282039 0.959403
vn 0.000000 1.000000 -0.000006
vn 0.479701 0.282040 0.830867
vn -0.000003 1.000000 -0.000005
vn 0.830867 0.282039 0.479703
vn -0.000005 1.000000 -0.000003
vn 0.959403 0.282039 -0.000000
vn -0.000006 1.000000 0.000000
vn 0.830867 0.282039 -0.479703
vn -0.000005 1.000000 0.000003
vn 0.479701 0.282040 -0.830867
vn -0.000003 1.000000 0.000005
vn 0.000000 0.282039 -0.959403
vn 0.000000 1.000000 0.000006
vn -0.479701 0.282039 -0.830867
vn 0.000003 1.000000 0.000005
vn -0.830867 0.282040 -0.479702
vn 0.000005 1.000000 0.000003
vn -0.959403 0.282039 -0.000000
vn 0.000006 1.000000 -0.000000
vn 0.000000 -1.000000 0.000000
vn 0.000000 1.000000 0.000000
vn -0.866025 0.000073 0.500000
vn -0.500000 0.000073 0.866025
vn 0.000000 0.000073 1.000000
vn 0.500000 0.000073 0.866025
vn 0.866025 0.000073 0.500001
vn 1.000000 0.000073 -0.000000
vn 0.866025 0.000073 -0.500001
vn 0.500000 0.000073 -0.866025
vn 0.000000 0.000073 -1.000000
vn -0.500000 0.000073 -0.866025
vn -0.866025 0.000073 -0.500000
vn -1.000000 0.000073 0.000000
vn 0.864389 -0.061448 -0.499055
vn 0.860945 0.108158 -0.497067
vn 0.994134 0.108158 0.000000
vn 0.998110 -0.061448 -0.000000
vn 0.499055 -0.061449 -0.864389
vn 0.497067 0.108158 -0.860945
vn 0.000000 -0.061449 -0.998110
vn -0.000000 0.108158 -0.994134
vn -0.499055 -0.061449 -0.864389
vn -0.497067 0.108158 -0.860945
vn -0.864389 -0.061449 -0.499055
vn -0.860945 0.108158 -0.497067
vn -0.998110 -0.061449 0.000000
vn -0.994134 0.108158 -0.000000
vn -0.864389 -0.061449 0.499055
vn -0.860945 0.108158 0.497067
vn -0.499055 -0.061449 0.864389
vn -0.497067 0.108158 0.860945
vn 0.000000 -0.061449 0.998110
vn 0.000000 0.108158 0.994134
vn 0.499055 -0.061449 0.864389
vn 0.497067 0.108158 0.860945
vn 0.864389 -0.061448 0.499055
vn 0.860945 0.108158 0.497067
s 1
g PotClean
usemtl initialShadingGroup
f 1/1/1 2/2/2 14/230/3 13/220/4
f 2/2/2 3/3/5 15/229/6 14/230/3
f 3/3/5 4/4/7 16/228/8 15/229/6
f 4/4/7 5/5/9 17/227/10 16/228/8
f 5/5/9 6/6/11 18/226/12 17/227/10
f 6/6/11 7/7/13 19/225/14 18/226/12
f 7/7/13 8/8/15 20/224/16 19/225/14
f 8/8/15 9/9/17 21/223/18 20/224/16
f 9/9/17 10/10/19 22/222/20 21/223/18
f 10/10/19 11/11/21 23/221/22 22/222/20
f 11/11/21 12/12/23 24/219/24 23/221/22
f 12/12/23 1/1/1 13/220/4 24/219/24
f 13/13/4 14/14/3 26/26/25 25/25/26
f 14/14/3 15/15/6 27/27/27 26/26/25
f 15/15/6 16/16/8 28/28/28 27/27/27
f 16/16/8 17/17/10 29/29/29 28/28/28
f 17/17/10 18/18/12 30/30/30 29/29/29
f 18/18/12 19/19/14 31/31/31 30/30/30
f 19/19/14 20/20/16 32/32/32 31/31/31
f 20/20/16 21/21/18 33/33/33 32/32/32
f 21/21/18 22/22/20 34/34/34 33/33/33
f 22/22/20 23/23/22 35/35/35 34/34/34
f 23/23/22 24/24/24 36/36/36 35/35/35
f 24/24/24 13/13/4 25/25/26 36/36/36
f 25/25/26 26/26/25 38/139/37 37/37/38
f 26/26/25 27/27/27 39/140/39 38/139/37
f 27/27/27 28/28/28 40/142/40 39/140/39
f 28/28/28 29/29/29 41/144/41 40/142/40
f 29/29/29 30/30/30 42/146/42 41/144/41
f 30/30/30 31/31/31 43/148/43 42/146/42
f 31/31/31 32/32/32 44/150/44 43/148/43
f 32/32/32 33/33/33 45/152/45 44/150/44
f 33/33/33 34/34/34 46/154/46 45/152/45
f 34/34/34 35/35/35 47/156/47 46/154/46
f 35/35/35 36/36/36 48/158/48 47/156/47
f 36/36/36 25/25/26 37/37/38 48/158/48
f 49/38/49 50/163/50 62/40/51 61/39/52
f 50/163/50 51/165/53 63/41/54 62/40/51
f 51/165/53 52/167/55 64/42/56 63/41/54
f 52/167/55 53/169/57 65/43/58 64/42/56
f 53/169/57 54/171/59 66/44/60 65/43/58
f 54/171/59 55/173/61 67/45/62 66/44/60
f 55/173/61 56/175/63 68/46/64 67/45/62
f 56/175/63 57/177/65 69/47/66 68/46/64
f 57/177/65 58/179/67 70/48/68 69/47/66
f 58/179/67 59/181/69 71/49/70 70/48/68
f 59/181/69 60/182/71 72/50/72 71/49/70
f 60/182/71 49/38/49 61/39/52 72/50/72
f 61/39/52 62/40/51 74/52/73 73/51/74
f 62/40/51 63/41/54 75/53/75 74/52/73
f 63/41/54 64/42/56 76/54/76 75/53/75
f 64/42/56 65/43/58 77/55/77 76/54/76
f 65/43/58 66/44/60 78/56/78 77/55/77
f 66/44/60 67/45/62 79/57/79 78/56/78
f 67/45/62 68/46/64 80/58/80 79/57/79
f 68/46/64 69/47/66 81/59/81 80/58/80
f 69/47/66 70/48/68 82/60/82 81/59/81
f 70/48/68 71/49/70 83/61/83 82/60/82
f 71/49/70 72/50/72 84/62/84 83/61/83
f 72/50/72 61/39/52 73/51/74 84/62/84
f 73/51/74 74/52/73 86/218/85 85/208/86
f 74/52/73 75/53/75 87/217/87 86/218/85
f 75/53/75 76/54/76 88/216/88 87/217/87
f 76/54/76 77/55/77 89/215/89 88/216/88
f 77/55/77 78/56/78 90/214/90 89/215/89
f 78/56/78 79/57/79 91/213/91 90/214/90
f 79/57/79 80/58/80 92/212/92 91/213/91
f 80/58/80 81/59/81 93/211/93 92/212/92
f 81/59/81 82/60/82 94/210/94 93/211/93
f 82/60/82 83/61/83 95/209/95 94/210/94
f 83/61/83 84/62/84 96/207/96 95/209/95
f 84/62/84 73/51/74 85/208/86 96/207/96
f 147/125/97 148/126/98 98/76/99 97/75/100
f 148/126/98 149/127/101 99/77/102 98/76/99
f 149/127/101 150/128/103 100/78/104 99/77/102
f 150/128/103 151/129/105 101/79/106 100/78/104
f 151/129/105 152/130/107 102/80/108 101/79/106
f 152/130/107 153/131/109 103/81/110 102/80/108
f 153/131/109 154/132/111 104/82/112 103/81/110
f 154/132/111 155/133/113 105/83/114 104/82/112
f 155/133/113 156/134/115 106/84/116 105/83/114
f 156/134/115 157/135/117 107/85/118 106/84/116
f 157/135/117 158/136/119 108/86/120 107/85/118
f 158/136/119 147/125/97 97/75/100 108/86/120
f 110/184/121 111/194/122 112/88/123 113/87/124
f 111/194/122 114/193/125 115/89/126 112/88/123
f 114/193/125 116/192/127 117/90/128 115/89/126
f 116/192/127 118/191/129 119/91/130 117/90/128
f 118/191/129 120/190/131 121/92/132 119/91/130
f 120/190/131 122/189/133 123/93/134 121/92/132
f 122/189/133 124/188/135 125/94/136 123/93/134
f 124/188/135 126/187/137 127/95/138 125/94/136
f 126/187/137 128/186/139 129/96/140 127/95/138
f 128/186/139 130/185/141 131/97/142 129/96/140
f 130/185/141 132/183/143 133/98/144 131/97/142
f 132/183/143 110/184/121 113/87/124 133/98/144
f 2/2/2 1/1/1 109/99/145
f 3/3/5 2/2/2 109/99/145
f 4/4/7 3/3/5 109/99/145
f 5/5/9 4/4/7 109/99/145
f 6/6/11 5/5/9 109/99/145
f 7/7/13 6/6/11 109/99/145
f 8/8/15 7/7/13 109/99/145
f 9/9/17 8/8/15 109/99/145
f 10/10/19 9/9/17 109/99/145
f 11/11/21 10/10/19 109/99/145
f 12/12/23 11/11/21 109/99/145
f 1/1/1 12/12/23 109/99/145
f 113/87/124 112/88/123 134/100/146
f 112/88/123 115/89/126 134/100/146
f 115/89/126 117/90/128 134/100/146
f 117/90/128 119/91/130 134/100/146
f 119/91/130 121/92/132 134/100/146
f 121/92/132 123/93/134 134/100/146
f 123/93/134 125/94/136 134/100/146
f 125/94/136 127/95/138 134/100/146
f 127/95/138 129/96/140 134/100/146
f 129/96/140 131/97/142 134/100/146
f 131/97/142 133/98/144 134/100/146
f 133/98/144 113/87/124 134/100/146
f 135/113/147 136/114/148 111/102/122 110/101/121
f 136/114/148 137/115/149 114/103/125 111/102/122
f 137/115/149 138/116/150 116/104/127 114/103/125
f 138/116/150 139/117/151 118/105/129 116/104/127
f 139/117/151 140/118/152 120/106/131 118/105/129
f 140/118/152 141/119/153 122/107/133 120/106/131
f 141/119/153 142/120/154 124/108/135 122/107/133
f 142/120/154 143/121/155 126/109/137 124/108/135
f 143/121/155 144/122/156 128/110/139 126/109/137
f 144/122/156 145/123/157 130/111/141 128/110/139
f 145/123/157 146/124/158 132/112/143 130/111/141
f 146/124/158 135/113/147 110/101/121 132/112/143
f 97/196/100 98/206/99 136/114/148 135/113/147
f 98/206/99 99/205/102 137/115/149 136/114/148
f 99/205/102 100/204/104 138/116/150 137/115/149
f 100/204/104 101/203/106 139/117/151 138/116/150
f 101/203/106 102/202/108 140/118/152 139/117/151
f 102/202/108 103/201/110 141/119/153 140/118/152
f 103/201/110 104/200/112 142/120/154 141/119/153
f 104/200/112 105/199/114 143/121/155 142/120/154
f 105/199/114 106/198/116 144/122/156 143/121/155
f 106/198/116 107/197/118 145/123/157 144/122/156
f 107/197/118 108/195/120 146/124/158 145/123/157
f 108/195/120 97/196/100 135/113/147 146/124/158
f 85/63/86 86/64/85 148/126/98 147/125/97
f 86/64/85 87/65/87 149/127/101 148/126/98
f 87/65/87 88/66/88 150/128/103 149/127/101
f 88/66/88 89/67/89 151/129/105 150/128/103
f 89/67/89 90/68/90 152/130/107 151/129/105
f 90/68/90 91/69/91 153/131/109 152/130/107
f 91/69/91 92/70/92 154/132/111 153/131/109
f 92/70/92 93/71/93 155/133/113 154/132/111
f 93/71/93 94/72/94 156/134/115 155/133/113
f 94/72/94 95/73/95 157/135/117 156/134/115
f 95/73/95 96/74/96 158/136/119 157/135/117
f 96/74/96 85/63/86 147/125/97 158/136/119
f 159/137/159 160/138/160 182/180/161 181/160/162
f 160/138/160 159/137/159 161/141/163 162/161/164
f 162/161/164 161/141/163 163/143/165 164/162/166
f 164/162/166 163/143/165 165/145/167 166/164/168
f 166/164/168 165/145/167 167/147/169 168/166/170
f 168/166/170 167/147/169 169/149/171 170/168/172
f 170/168/172 169/149/171 171/151/173 172/170/174
f 172/170/174 171/151/173 173/153/175 174/172/176
f 174/172/176 173/153/175 175/155/177 176/174/178
f 176/174/178 175/155/177 177/157/179 178/176/180
f 178/176/180 177/157/179 179/159/181 180/178/182
f 180/178/182 179/159/181 181/160/162 182/180/161
f 37/37/38 38/139/37 161/141/163 159/137/159
f 38/139/37 39/140/39 163/143/165 161/141/163
f 39/140/39 40/142/40 165/145/167 163/143/165
f 40/142/40 41/144/41 167/147/169 165/145/167
f 41/144/41 42/146/42 169/149/171 167/147/169
f 42/146/42 43/148/43 171/151/173 169/149/171
f 43/148/43 44/150/44 173/153/175 171/151/173
f 44/150/44 45/152/45 175/155/177 173/153/175
f 45/152/45 46/154/46 177/157/179 175/155/177
f 46/154/46 47/156/47 179/159/181 177/157/179
f 47/156/47 48/158/48 181/160/162 179/159/181
f 48/158/48 37/37/38 159/137/159 181/160/162
f 160/138/160 162/161/164 50/163/50 49/38/49
f 162/161/164 164/162/166 51/165/53 50/163/50
f 164/162/166 166/164/168 52/167/55 51/165/53
f 166/164/168 168/166/170 53/169/57 52/167/55
f 168/166/170 170/168/172 54/171/59 53/169/57
f 170/168/172 172/170/174 55/173/61 54/171/59
f 172/170/174 174/172/176 56/175/63 55/173/61
f 174/172/176 176/174/178 57/177/65 56/175/63
f 176/174/178 178/176/180 58/179/67 57/177/65
f 178/176/180 180/178/182 59/181/69 58/179/67
f 180/178/182 182/180/161 60/182/71 59/181/69
f 182/180/161 160/138/160 49/38/49 60/182/71
