# This file uses centimeters as units for non-parametric coordinates.

mtllib Rock.mtl
g default
v -0.019765 0.025614 0.056489
v 0.045279 0.026039 0.006413
v 0.004630 0.029674 -0.000447
v -0.022523 0.022565 0.000000
v 0.001986 -0.001352 -0.000980
v -0.008234 0.010177 -0.070999
v 0.035975 0.036348 0.001132
v -0.010298 0.035786 0.038264
v 0.037827 0.026697 0.048803
v 0.032233 0.037524 0.036181
v -0.022803 0.035679 0.000000
v -0.040055 0.015494 0.048803
v -0.035138 0.032716 0.039847
v -0.024948 0.007043 0.000000
v -0.011433 0.005891 0.039191
v -0.034693 0.005683 0.039847
v 0.037224 0.002135 0.000956
v 0.034399 0.003894 0.036337
v -0.007221 0.017839 -0.050417
v 0.044241 0.018139 -0.049517
v 0.035897 0.024753 -0.040641
v -0.030450 0.019873 -0.049362
v -0.024138 0.026863 -0.040489
v -0.010477 -0.007631 -0.050237
v -0.027131 0.002638 -0.040425
v 0.035875 -0.000720 -0.040497
vt 0.112120 0.334494
vt 0.472575 0.104750
vt 0.417941 0.359357
vt 0.336944 0.578261
vt 0.222677 0.823007
vt 0.720084 0.511737
vt 0.466624 0.187853
vt 0.229265 0.334234
vt 0.260913 0.101819
vt 0.317869 0.161777
vt 0.356968 0.504306
vt 0.098243 0.443773
vt 0.177917 0.419117
vt 0.311882 0.649430
vt 0.018113 0.771825
vt 0.002930 0.658772
vt 0.223338 0.997070
vt 0.049386 0.994671
vt 0.624964 0.487385
vt 0.712971 0.256094
vt 0.649025 0.271634
vt 0.605751 0.599460
vt 0.552705 0.558378
vt 0.798664 0.587462
vt 0.399692 0.658857
vt 0.795197 0.216483
vt 0.556291 0.002946
vt 0.425928 0.977761
vt 0.461852 0.746160
vt 0.202148 0.685982
vt 0.622084 0.672393
vt 0.240795 0.002930
vt 0.002930 0.281298
vt 0.068366 0.487071
vn 0.773006 0.626954 0.096903
vn 0.773006 0.626954 0.096903
vn 0.773006 0.626954 0.096903
vn 0.773006 0.626954 0.096903
vn -0.113087 0.985564 -0.126000
vn -0.113087 0.985564 -0.126000
vn -0.113087 0.985564 -0.126000
vn -0.113087 0.985564 -0.126000
vn 0.031923 0.824343 0.565190
vn 0.031923 0.824343 0.565190
vn 0.031923 0.824343 0.565190
vn 0.031923 0.824343 0.565190
vn 0.055243 0.998255 -0.020852
vn 0.055243 0.998255 -0.020852
vn 0.055243 0.998255 -0.020852
vn 0.055243 0.998255 -0.020852
vn -0.948137 0.052363 -0.313519
vn -0.948137 0.052363 -0.313519
vn -0.948137 0.052363 -0.313519
vn -0.948137 0.052363 -0.313519
vn -0.298602 0.746626 0.594463
vn -0.298602 0.746626 0.594463
vn -0.298602 0.746626 0.594463
vn -0.298602 0.746626 0.594463
vn -0.955580 -0.006583 -0.294659
vn -0.955580 -0.006583 -0.294659
vn -0.955580 -0.006583 -0.294659
vn -0.955580 -0.006583 -0.294659
vn -0.160072 -0.986757 0.026204
vn -0.160073 -0.986757 0.026204
vn -0.160072 -0.986757 0.026204
vn -0.160073 -0.986757 0.026204
vn 0.033572 -0.655272 0.754647
vn 0.033572 -0.655272 0.754647
vn 0.033572 -0.655272 0.754647
vn 0.033572 -0.655272 0.754646
vn 0.078672 -0.565539 0.820961
vn 0.078672 -0.565539 0.820961
vn 0.078672 -0.565539 0.820961
vn 0.078672 -0.565539 0.820961
vn 0.019610 -0.992280 0.122454
vn 0.019610 -0.992280 0.122454
vn 0.019610 -0.992280 0.122454
vn 0.019610 -0.992280 0.122454
vn 0.949116 -0.284861 0.134287
vn 0.949116 -0.284861 0.134287
vn 0.949116 -0.284861 0.134287
vn 0.949116 -0.284861 0.134287
vn 0.002385 0.900116 -0.435644
vn 0.002385 0.900116 -0.435644
vn 0.002385 0.900116 -0.435644
vn 0.002385 0.900116 -0.435644
vn -0.141085 0.963455 -0.227707
vn -0.141085 0.963455 -0.227707
vn -0.141085 0.963455 -0.227707
vn -0.141085 0.963455 -0.227707
vn 0.667548 0.728673 -0.153024
vn 0.667548 0.728673 -0.153024
vn 0.667548 0.728673 -0.153024
vn 0.667548 0.728673 -0.153024
vn 0.057037 0.888146 -0.456008
vn 0.057037 0.888146 -0.456008
vn 0.057037 0.888146 -0.456008
vn 0.057037 0.888146 -0.456008
vn -0.963375 0.259903 0.066029
vn -0.963375 0.259903 0.066029
vn -0.963375 0.259903 0.066029
vn -0.963375 0.259903 0.066029
vn 0.257608 0.933194 -0.250575
vn 0.257608 0.933194 -0.250575
vn 0.257608 0.933194 -0.250575
vn 0.257608 0.933194 -0.250575
vn -0.687280 -0.481830 -0.543587
vn -0.687280 -0.481830 -0.543587
vn -0.687280 -0.481830 -0.543587
vn -0.687280 -0.481830 -0.543587
vn -0.352780 -0.920631 0.167286
vn -0.352780 -0.920631 0.167286
vn -0.352780 -0.920631 0.167286
vn -0.352780 -0.920631 0.167286
vn -0.993744 0.003350 0.111634
vn -0.993744 0.003350 0.111634
vn -0.993744 0.003350 0.111634
vn -0.993744 0.003350 0.111634
vn 0.315935 -0.651570 -0.689668
vn 0.315935 -0.651570 -0.689667
vn 0.315935 -0.651570 -0.689667
vn 0.315935 -0.651570 -0.689668
vn 0.933874 -0.357220 0.016553
vn 0.933874 -0.357220 0.016553
vn 0.933874 -0.357220 0.016553
vn 0.933874 -0.357220 0.016553
vn 0.114384 -0.990024 0.082268
vn 0.114384 -0.990024 0.082268
vn 0.114384 -0.990024 0.082268
vn 0.114384 -0.990024 0.082268
s off
g Rock
usemtl initialShadingGroup
f 9/9/1 2/2/2 7/7/3 10/10/4
f 7/7/5 3/3/6 8/8/7 10/10/8
f 8/8/9 1/1/10 9/9/11 10/10/12
f 8/8/13 3/3/14 11/11/15 13/13/16
f 11/11/17 4/4/18 12/12/19 13/13/20
f 12/12/21 1/1/22 8/8/23 13/13/24
f 12/12/25 4/4/26 14/14/27 16/34/28
f 14/30/29 5/5/30 15/15/31 16/16/32
f 15/33/33 1/1/34 12/12/35 16/34/36
f 9/9/37 1/1/38 15/33/39 18/32/40
f 15/15/41 5/5/42 17/17/43 18/18/44
f 17/27/45 2/2/46 9/9/47 18/32/48
f 20/20/49 6/6/50 19/19/51 21/21/52
f 19/19/53 3/3/54 7/7/55 21/21/56
f 7/7/57 2/2/58 20/20/59 21/21/60
f 19/19/61 6/6/62 22/22/63 23/23/64
f 22/22/65 4/4/66 11/11/67 23/23/68
f 11/11/69 3/3/70 19/19/71 23/23/72
f 22/22/73 6/6/74 24/24/75 25/31/76
f 24/29/77 5/5/78 14/30/79 25/25/80
f 14/14/81 4/4/82 22/22/83 25/31/84
f 24/24/85 6/6/86 20/20/87 26/26/88
f 20/20/89 2/2/90 17/27/91 26/26/92
f 17/17/93 5/5/94 24/29/95 26/28/96
