# This file uses centimeters as units for non-parametric coordinates.

mtllib CorbCob.mtl
g default
v 0.018342 0.000062 -0.009210
v 0.009425 0.000104 -0.018232
v -0.003092 0.000106 -0.020290
v -0.014427 0.000068 -0.014598
v -0.020253 0.000003 -0.003330
v -0.018342 -0.000062 0.009210
v -0.009425 -0.000104 0.018232
v 0.003092 -0.000106 0.020290
v 0.014427 -0.000068 0.014598
v 0.020252 -0.000003 0.003330
v 0.011814 0.145216 -0.005209
v 0.006020 0.145243 -0.011070
v -0.002112 0.145244 -0.012407
v -0.009477 0.145220 -0.008709
v -0.013262 0.145178 -0.001388
v -0.012020 0.145135 0.006760
v -0.006227 0.145108 0.012621
v 0.001905 0.145106 0.013959
v 0.009271 0.145131 0.010260
v 0.013055 0.145173 0.002939
v 0.019233 0.076462 -0.009277
v 0.009857 0.076506 -0.018764
v -0.003305 0.076509 -0.020928
v -0.015226 0.076468 -0.014942
v -0.021351 0.076401 -0.003093
v -0.019342 0.076332 0.010093
v -0.009965 0.076288 0.019580
v 0.003197 0.076285 0.021744
v 0.015117 0.076326 0.015758
v 0.021242 0.076393 0.003909
v 0.015837 0.118592 -0.007362
v 0.017496 0.118535 0.003524
v 0.012439 0.118479 0.013305
v 0.002599 0.118445 0.018246
v -0.008266 0.118447 0.016460
v -0.016006 0.118484 0.008628
v -0.017665 0.118541 -0.002257
v -0.012608 0.118596 -0.012038
v -0.002768 0.118630 -0.016979
v 0.008097 0.118628 -0.015193
v 0.019693 0.038265 -0.009698
v 0.010106 0.038310 -0.019398
v -0.003351 0.038313 -0.021610
v -0.015539 0.038271 -0.015490
v -0.021801 0.038202 -0.003376
v -0.019747 0.038132 0.010106
v -0.010160 0.038087 0.019806
v 0.003297 0.038084 0.022018
v 0.015484 0.038126 0.015899
v 0.021747 0.038195 0.003784
v 0.006881 0.158608 -0.002665
v 0.003481 0.158624 -0.006105
v -0.000116 0.163079 0.000871
v -0.001292 0.158625 -0.006890
v -0.005615 0.158610 -0.004719
v -0.007836 0.158586 -0.000423
v -0.007107 0.158561 0.004359
v -0.003707 0.158545 0.007800
v 0.001066 0.158544 0.008584
v 0.005389 0.158558 0.006414
v 0.007610 0.158583 0.002117
v 0.015366 0.000052 -0.007716
v 0.007896 0.000087 -0.015274
v -0.002590 0.000089 -0.016998
v -0.012087 0.000057 -0.012230
v -0.016967 0.000003 -0.002790
v -0.015366 -0.000052 0.007716
v -0.007896 -0.000087 0.015274
v 0.002590 -0.000089 0.016998
v 0.012087 -0.000057 0.012230
v 0.016967 -0.000003 0.002790
v 0.013829 0.000939 -0.006940
v 0.007106 0.000971 -0.013742
v -0.002332 0.000972 -0.015294
v -0.010879 0.000943 -0.011002
v -0.015271 0.000895 -0.002506
v -0.013830 0.000845 0.006949
v -0.007107 0.000814 0.013751
v 0.002330 0.000812 0.015303
v 0.010877 0.000841 0.011011
v 0.015269 0.000890 0.002515
v 0.011385 -0.004217 -0.005738
v 0.005852 -0.004191 -0.011337
v 0.000003 -0.004255 -0.000023
v -0.001916 -0.004189 -0.012614
v -0.008950 -0.004213 -0.009081
v -0.012565 -0.004253 -0.002089
v -0.011379 -0.004294 0.005693
v -0.005846 -0.004320 0.011291
v 0.001922 -0.004321 0.012568
v 0.008956 -0.004297 0.009036
v 0.012571 -0.004257 0.002044
vt 0.626409 0.064409
vt 0.548284 0.007647
vt 0.451716 0.007647
vt 0.373591 0.064409
vt 0.343750 0.156250
vt 0.373591 0.248091
vt 0.451716 0.304853
vt 0.548284 0.304853
vt 0.626409 0.248091
vt 0.656250 0.156250
vt 0.375000 0.312500
vt 0.400000 0.312500
vt 0.425000 0.312500
vt 0.450000 0.312500
vt 0.475000 0.312500
vt 0.500000 0.312500
vt 0.525000 0.312500
vt 0.550000 0.312500
vt 0.575000 0.312500
vt 0.600000 0.312500
vt 0.625000 0.312500
vt 0.375000 0.688440
vt 0.400000 0.688440
vt 0.425000 0.688440
vt 0.450000 0.688440
vt 0.475000 0.688440
vt 0.500000 0.688440
vt 0.525000 0.688440
vt 0.550000 0.688440
vt 0.575000 0.688440
vt 0.600000 0.688440
vt 0.625000 0.688440
vt 0.626409 0.751909
vt 0.548284 0.695147
vt 0.451716 0.695147
vt 0.373591 0.751909
vt 0.343750 0.843750
vt 0.373591 0.935591
vt 0.451716 0.992353
vt 0.548284 0.992353
vt 0.626409 0.935591
vt 0.656250 0.843750
vt 0.500000 0.150000
vt 0.500000 0.837500
vt 0.625000 0.500470
vt 0.375000 0.500470
vt 0.400000 0.500470
vt 0.425000 0.500470
vt 0.450000 0.500470
vt 0.475000 0.500470
vt 0.500000 0.500470
vt 0.525000 0.500470
vt 0.550000 0.500470
vt 0.575000 0.500470
vt 0.600000 0.500470
vt 0.625000 0.594455
vt 0.375000 0.594455
vt 0.600000 0.594455
vt 0.575000 0.594455
vt 0.550000 0.594455
vt 0.525000 0.594455
vt 0.500000 0.594455
vt 0.475000 0.594455
vt 0.450000 0.594455
vt 0.425000 0.594455
vt 0.400000 0.594455
vt 0.625000 0.406485
vt 0.375000 0.406485
vt 0.400000 0.406485
vt 0.425000 0.406485
vt 0.450000 0.406485
vt 0.475000 0.406485
vt 0.500000 0.406485
vt 0.525000 0.406485
vt 0.550000 0.406485
vt 0.575000 0.406485
vt 0.600000 0.406485
vt 0.626409 0.935591
vt 0.548284 0.992353
vt 0.451716 0.992353
vt 0.373591 0.935591
vt 0.343750 0.843750
vt 0.373591 0.751909
vt 0.451716 0.695147
vt 0.548284 0.695147
vt 0.626409 0.751909
vt 0.656250 0.843750
vt 0.548284 0.007647
vt 0.626409 0.064409
vt 0.451716 0.007647
vt 0.373591 0.064409
vt 0.343750 0.156250
vt 0.373591 0.248091
vt 0.451716 0.304853
vt 0.548284 0.304853
vt 0.626409 0.248091
vt 0.656250 0.156250
vt 0.548284 0.007647
vt 0.626409 0.064409
vt 0.451716 0.007647
vt 0.373591 0.064409
vt 0.343750 0.156250
vt 0.373591 0.248091
vt 0.451716 0.304853
vt 0.548284 0.304853
vt 0.626409 0.248091
vt 0.656250 0.156250
vt 0.548284 0.007647
vt 0.626409 0.064409
vt 0.451716 0.007647
vt 0.373591 0.064409
vt 0.343750 0.156250
vt 0.373591 0.248091
vt 0.451716 0.304853
vt 0.548284 0.304853
vt 0.626409 0.248091
vt 0.656250 0.156250
vn 0.892480 0.053518 -0.447901
vn 0.458591 0.055554 -0.886909
vn 0.456137 0.119055 -0.881910
vn 0.887747 0.117029 -0.445207
vn -0.150477 0.055656 -0.987046
vn -0.149732 0.119156 -0.981520
vn -0.702083 0.053784 -0.710061
vn -0.698441 0.117294 -0.705991
vn -0.985530 0.050653 -0.161754
vn -0.980399 0.114180 -0.160564
vn -0.892552 0.047460 0.448441
vn -0.887909 0.111003 0.446426
vn -0.458663 0.045423 0.887448
vn -0.456300 0.108977 0.883128
vn 0.150406 0.045322 0.987585
vn 0.149569 0.108876 0.982739
vn 0.702012 0.047194 0.710600
vn 0.698279 0.110738 0.707208
vn 0.985458 0.050325 0.162295
vn 0.980237 0.113853 0.161783
vn 0.000717 -0.999986 -0.005340
vn 0.000709 -0.999986 -0.005345
vn 0.000712 -0.999986 -0.005341
vn 0.000717 -0.999986 -0.005335
vn 0.000714 -0.999986 -0.005337
vn 0.000716 -0.999986 -0.005337
vn 0.000713 -0.999986 -0.005338
vn 0.000710 -0.999986 -0.005344
vn 0.000708 -0.999986 -0.005343
vn 0.000707 -0.999986 -0.005344
vn 0.000708 -0.999985 -0.005346
vn 0.790352 0.468695 -0.394548
vn 0.405970 0.470498 -0.783467
vn -0.000712 0.999986 0.005339
vn -0.133607 0.470589 -0.872179
vn -0.622280 0.468931 -0.626795
vn -0.873387 0.466156 -0.141048
vn -0.791016 0.463328 0.399525
vn -0.406632 0.461523 0.788446
vn 0.132944 0.461435 0.877157
vn 0.621616 0.463092 0.631774
vn 0.872723 0.465865 0.146027
vn 0.893585 -0.010416 -0.448774
vn 0.459181 -0.008378 -0.888303
vn -0.150610 -0.008276 -0.988559
vn -0.702870 -0.010151 -0.711246
vn -0.986654 -0.013285 -0.162287
vn -0.893565 -0.016482 0.448631
vn -0.459162 -0.018521 0.888159
vn 0.150630 -0.018623 0.988415
vn 0.702890 -0.016748 0.711102
vn 0.986673 -0.013614 0.162145
vn 0.871684 0.222564 -0.436615
vn 0.962508 0.219444 0.159443
vn 0.685628 0.216386 0.695048
vn 0.146798 0.214557 0.965617
vn -0.448159 0.214656 0.867800
vn -0.871996 0.216645 0.438962
vn -0.962821 0.219765 -0.157097
vn -0.685940 0.222823 -0.692702
vn -0.147112 0.224652 -0.963270
vn 0.447847 0.224553 -0.865453
vn 0.892957 -0.037306 -0.448593
vn 0.458868 -0.035268 -0.887804
vn -0.150482 -0.035167 -0.987987
vn -0.702342 -0.037040 -0.710876
vn -0.985921 -0.040172 -0.162314
vn -0.892899 -0.043367 0.448163
vn -0.458811 -0.045404 0.887373
vn 0.150540 -0.045506 0.987556
vn 0.702400 -0.043633 0.710444
vn 0.985978 -0.040501 0.161884
vn 0.000694 -0.999986 -0.005323
vn 0.000694 -0.999986 -0.005323
vn 0.000694 -0.999986 -0.005323
vn 0.000694 -0.999986 -0.005323
vn 0.000712 -0.999986 -0.005339
vn 0.000712 -0.999986 -0.005339
vn 0.000712 -0.999986 -0.005339
vn 0.000712 -0.999986 -0.005339
vn 0.000708 -0.999985 -0.005348
vn 0.000708 -0.999985 -0.005348
vn 0.000708 -0.999985 -0.005348
vn 0.000708 -0.999985 -0.005348
vn 0.000705 -0.999986 -0.005340
vn 0.000705 -0.999986 -0.005340
vn 0.000705 -0.999986 -0.005340
vn 0.000705 -0.999986 -0.005340
vn 0.000699 -0.999986 -0.005344
vn 0.000699 -0.999986 -0.005344
vn 0.000699 -0.999986 -0.005344
vn 0.000699 -0.999986 -0.005344
vn 0.000707 -0.999986 -0.005336
vn 0.000707 -0.999986 -0.005336
vn 0.000707 -0.999986 -0.005336
vn 0.000707 -0.999986 -0.005336
vn 0.000712 -0.999986 -0.005339
vn 0.000712 -0.999986 -0.005339
vn 0.000712 -0.999986 -0.005339
vn 0.000712 -0.999986 -0.005339
vn 0.000708 -0.999986 -0.005348
vn 0.000708 -0.999986 -0.005348
vn 0.000708 -0.999985 -0.005348
vn 0.000708 -0.999986 -0.005348
vn 0.000708 -0.999986 -0.005345
vn 0.000708 -0.999986 -0.005345
vn 0.000708 -0.999985 -0.005345
vn 0.000708 -0.999986 -0.005345
vn 0.000700 -0.999986 -0.005339
vn 0.000700 -0.999986 -0.005339
vn 0.000700 -0.999986 -0.005339
vn 0.000700 -0.999986 -0.005339
vn -0.339984 -0.879902 0.331938
vn -0.339984 -0.879902 0.331938
vn -0.339984 -0.879902 0.331938
vn -0.339984 -0.879902 0.331938
vn -0.077066 -0.880426 0.467879
vn -0.077066 -0.880426 0.467879
vn -0.077066 -0.880426 0.467879
vn -0.077066 -0.880426 0.467879
vn 0.215539 -0.879980 0.423293
vn 0.215539 -0.879980 0.423293
vn 0.215539 -0.879980 0.423293
vn 0.215539 -0.879980 0.423293
vn 0.426053 -0.878722 0.215234
vn 0.426053 -0.878722 0.215234
vn 0.426053 -0.878722 0.215234
vn 0.426053 -0.878722 0.215234
vn 0.474072 -0.877128 -0.076829
vn 0.474072 -0.877128 -0.076829
vn 0.474072 -0.877128 -0.076829
vn 0.474072 -0.877128 -0.076829
vn 0.341247 -0.875811 -0.341329
vn 0.341247 -0.875811 -0.341329
vn 0.341247 -0.875811 -0.341329
vn 0.341247 -0.875811 -0.341329
vn 0.078321 -0.875268 -0.477254
vn 0.078321 -0.875268 -0.477254
vn 0.078321 -0.875268 -0.477254
vn 0.078321 -0.875268 -0.477254
vn -0.214288 -0.875719 -0.432663
vn -0.214288 -0.875719 -0.432663
vn -0.214288 -0.875719 -0.432663
vn -0.214288 -0.875719 -0.432663
vn -0.424799 -0.876982 -0.224607
vn -0.424799 -0.876982 -0.224607
vn -0.424799 -0.876982 -0.224607
vn -0.424799 -0.876982 -0.224607
vn -0.472806 -0.878582 0.067444
vn -0.472806 -0.878582 0.067444
vn -0.472806 -0.878582 0.067444
vn -0.472806 -0.878582 0.067444
vn 0.634958 -0.447653 -0.629631
vn 0.634958 -0.447653 -0.629631
vn 0.634958 -0.447653 -0.629631
vn 0.634958 -0.447653 -0.629631
vn 0.145080 -0.446647 -0.882869
vn 0.145080 -0.446647 -0.882869
vn 0.145080 -0.446647 -0.882869
vn 0.145080 -0.446647 -0.882869
vn -0.400097 -0.447478 -0.799804
vn -0.400097 -0.447478 -0.799804
vn -0.400097 -0.447478 -0.799804
vn -0.400097 -0.447478 -0.799804
vn -0.792328 -0.449823 -0.412160
vn -0.792327 -0.449823 -0.412160
vn -0.792328 -0.449823 -0.412160
vn -0.792328 -0.449823 -0.412161
vn -0.881790 -0.452797 0.131992
vn -0.881790 -0.452797 0.131992
vn -0.881790 -0.452797 0.131992
vn -0.881790 -0.452797 0.131992
vn -0.634315 -0.455257 0.624809
vn -0.634315 -0.455257 0.624809
vn -0.634315 -0.455257 0.624809
vn -0.634315 -0.455257 0.624809
vn -0.144437 -0.456260 0.878046
vn -0.144437 -0.456259 0.878046
vn -0.144437 -0.456259 0.878046
vn -0.144437 -0.456260 0.878046
vn 0.400740 -0.455428 0.794980
vn 0.400740 -0.455428 0.794980
vn 0.400740 -0.455428 0.794980
vn 0.400740 -0.455428 0.794980
vn 0.792966 -0.453082 0.407336
vn 0.792966 -0.453082 0.407336
vn 0.792966 -0.453082 0.407336
vn 0.792966 -0.453082 0.407336
vn 0.882429 -0.450112 -0.136817
vn 0.882429 -0.450112 -0.136817
vn 0.882429 -0.450112 -0.136817
vn 0.882429 -0.450112 -0.136817
s 1
g pCylinder2
usemtl initialShadingGroup
f 21/46/1 22/47/2 40/66/3 31/57/4
f 22/47/2 23/48/5 39/65/6 40/66/3
f 23/48/5 24/49/7 38/64/8 39/65/6
f 24/49/7 25/50/9 37/63/10 38/64/8
f 25/50/9 26/51/11 36/62/12 37/63/10
f 26/51/11 27/52/13 35/61/14 36/62/12
f 27/52/13 28/53/15 34/60/16 35/61/14
f 28/53/15 29/54/17 33/59/18 34/60/16
f 29/54/17 30/55/19 32/58/20 33/59/18
f 30/55/19 21/45/1 31/56/4 32/58/20
s 2
f 83/108/21 82/109/22 84/43/23
f 85/110/24 83/108/21 84/43/23
f 86/111/25 85/110/24 84/43/23
f 87/112/26 86/111/25 84/43/23
f 88/113/27 87/112/26 84/43/23
f 89/114/28 88/113/27 84/43/23
f 90/115/29 89/114/28 84/43/23
f 91/116/30 90/115/29 84/43/23
f 92/117/31 91/116/30 84/43/23
f 82/109/22 92/117/31 84/43/23
s 1
f 51/78/32 52/79/33 53/44/34
f 52/79/33 54/80/35 53/44/34
f 54/80/35 55/81/36 53/44/34
f 55/81/36 56/82/37 53/44/34
f 56/82/37 57/83/38 53/44/34
f 57/83/38 58/84/39 53/44/34
f 58/84/39 59/85/40 53/44/34
f 59/85/40 60/86/41 53/44/34
f 60/86/41 61/87/42 53/44/34
f 61/87/42 51/78/32 53/44/34
f 41/68/43 42/69/44 22/47/2 21/46/1
f 42/69/44 43/70/45 23/48/5 22/47/2
f 43/70/45 44/71/46 24/49/7 23/48/5
f 44/71/46 45/72/47 25/50/9 24/49/7
f 45/72/47 46/73/48 26/51/11 25/50/9
f 46/73/48 47/74/49 27/52/13 26/51/11
f 47/74/49 48/75/50 28/53/15 27/52/13
f 48/75/50 49/76/51 29/54/17 28/53/15
f 49/76/51 50/77/52 30/55/19 29/54/17
f 50/77/52 41/67/43 21/45/1 30/55/19
f 32/58/20 31/56/4 11/32/53 20/31/54
f 33/59/18 32/58/20 20/31/54 19/30/55
f 34/60/16 33/59/18 19/30/55 18/29/56
f 35/61/14 34/60/16 18/29/56 17/28/57
f 36/62/12 35/61/14 17/28/57 16/27/58
f 37/63/10 36/62/12 16/27/58 15/26/59
f 38/64/8 37/63/10 15/26/59 14/25/60
f 39/65/6 38/64/8 14/25/60 13/24/61
f 40/66/3 39/65/6 13/24/61 12/23/62
f 31/57/4 40/66/3 12/23/62 11/22/53
f 1/11/63 2/12/64 42/69/44 41/68/43
f 2/12/64 3/13/65 43/70/45 42/69/44
f 3/13/65 4/14/66 44/71/46 43/70/45
f 4/14/66 5/15/67 45/72/47 44/71/46
f 5/15/67 6/16/68 46/73/48 45/72/47
f 6/16/68 7/17/69 47/74/49 46/73/48
f 7/17/69 8/18/70 48/75/50 47/74/49
f 8/18/70 9/19/71 49/76/51 48/75/50
f 9/19/71 10/20/72 50/77/52 49/76/51
f 10/20/72 1/21/63 41/67/43 50/77/52
f 11/41/53 12/40/62 52/79/33 51/78/32
f 12/40/62 13/39/61 54/80/35 52/79/33
f 13/39/61 14/38/60 55/81/36 54/80/35
f 14/38/60 15/37/59 56/82/37 55/81/36
f 15/37/59 16/36/58 57/83/38 56/82/37
f 16/36/58 17/35/57 58/84/39 57/83/38
f 17/35/57 18/34/56 59/85/40 58/84/39
f 18/34/56 19/33/55 60/86/41 59/85/40
f 19/33/55 20/42/54 61/87/42 60/86/41
f 20/42/54 11/41/53 51/78/32 61/87/42
s off
f 2/2/73 1/1/74 62/89/75 63/88/76
f 3/3/77 2/2/78 63/88/79 64/90/80
f 4/4/81 3/3/82 64/90/83 65/91/84
f 5/5/85 4/4/86 65/91/87 66/92/88
f 6/6/89 5/5/90 66/92/91 67/93/92
f 7/7/93 6/6/94 67/93/95 68/94/96
f 8/8/97 7/7/98 68/94/99 69/95/100
f 9/9/101 8/8/102 69/95/103 70/96/104
f 10/10/105 9/9/106 70/96/107 71/97/108
f 1/1/109 10/10/110 71/97/111 62/89/112
f 63/88/113 62/89/114 72/99/115 73/98/116
f 64/90/117 63/88/118 73/98/119 74/100/120
f 65/91/121 64/90/122 74/100/123 75/101/124
f 66/92/125 65/91/126 75/101/127 76/102/128
f 67/93/129 66/92/130 76/102/131 77/103/132
f 68/94/133 67/93/134 77/103/135 78/104/136
f 69/95/137 68/94/138 78/104/139 79/105/140
f 70/96/141 69/95/142 79/105/143 80/106/144
f 71/97/145 70/96/146 80/106/147 81/107/148
f 62/89/149 71/97/150 81/107/151 72/99/152
f 73/98/153 72/99/154 82/109/155 83/108/156
f 74/100/157 73/98/158 83/108/159 85/110/160
f 75/101/161 74/100/162 85/110/163 86/111/164
f 76/102/165 75/101/166 86/111/167 87/112/168
f 77/103/169 76/102/170 87/112/171 88/113/172
f 78/104/173 77/103/174 88/113/175 89/114/176
f 79/105/177 78/104/178 89/114/179 90/115/180
f 80/106/181 79/105/182 90/115/183 91/116/184
f 81/107/185 80/106/186 91/116/187 92/117/188
f 72/99/189 81/107/190 92/117/191 82/109/192
