# This file uses centimeters as units for non-parametric coordinates.

mtllib CornCob.mtl
g default
v 0.039966 0.009324 -0.020069
v 0.020537 0.009415 -0.039727
v -0.006737 0.009419 -0.044211
v -0.031437 0.009336 -0.031808
v -0.044130 0.009196 -0.007255
v -0.039966 0.009052 0.020069
v -0.020537 0.008961 0.039727
v 0.006737 0.008957 0.044211
v 0.031437 0.009041 0.031808
v 0.044130 0.009181 0.007255
v 0.025742 0.325611 -0.011349
v 0.013118 0.325670 -0.024122
v -0.004602 0.325673 -0.027036
v -0.020651 0.325619 -0.018977
v -0.028898 0.325528 -0.003024
v -0.026192 0.325435 0.014729
v -0.013569 0.325376 0.027502
v 0.004152 0.325373 0.030415
v 0.020201 0.325427 0.022357
v 0.028447 0.325518 0.006404
v 0.041908 0.175798 -0.020214
v 0.021477 0.175894 -0.040886
v -0.007202 0.175899 -0.045601
v -0.033176 0.175811 -0.032559
v -0.046523 0.175664 -0.006740
v -0.042145 0.175513 0.021993
v -0.021714 0.175417 0.042664
v 0.006966 0.175412 0.047380
v 0.032939 0.175501 0.034337
v 0.046286 0.175648 0.008519
v 0.034509 0.267597 -0.016041
v 0.038123 0.267473 0.007678
v 0.027105 0.267351 0.028991
v 0.005664 0.267279 0.039757
v -0.018011 0.267283 0.035865
v -0.034877 0.267362 0.018800
v -0.038491 0.267486 -0.004918
v -0.027473 0.267607 -0.026231
v -0.006032 0.267680 -0.036998
v 0.017643 0.267676 -0.033106
v 0.042910 0.092568 -0.021132
v 0.022021 0.092666 -0.042268
v -0.007302 0.092671 -0.047089
v -0.033859 0.092581 -0.033754
v -0.047505 0.092430 -0.007356
v -0.043028 0.092276 0.022021
v -0.022139 0.092178 0.043157
v 0.007184 0.092173 0.047978
v 0.033740 0.092263 0.034643
v 0.047386 0.092414 0.008245
v 0.014995 0.354792 -0.005807
v 0.007586 0.354827 -0.013303
v -0.000253 0.364534 0.001898
v -0.002815 0.354829 -0.015013
v -0.012234 0.354797 -0.010284
v -0.017074 0.354743 -0.000921
v -0.015486 0.354689 0.009499
v -0.008077 0.354654 0.016995
v 0.002323 0.354652 0.018705
v 0.011742 0.354684 0.013975
v 0.016582 0.354738 0.004613
v 0.033483 0.009302 -0.016813
v 0.017206 0.009378 -0.033283
v -0.005644 0.009382 -0.037039
v -0.026337 0.009312 -0.026648
v -0.036971 0.009194 -0.006078
v -0.033483 0.009074 0.016813
v -0.017206 0.008998 0.033283
v 0.005644 0.008994 0.037039
v 0.026337 0.009065 0.026648
v 0.036971 0.009182 0.006078
v 0.030133 0.011235 -0.015121
v 0.015483 0.011303 -0.029943
v -0.005081 0.011307 -0.033324
v -0.023705 0.011244 -0.023972
v -0.033275 0.011138 -0.005460
v -0.030135 0.011030 0.015142
v -0.015486 0.010961 0.029964
v 0.005078 0.010958 0.033345
v 0.023702 0.011021 0.023993
v 0.033272 0.011127 0.005481
v 0.024808 0.000000 -0.012503
v 0.012751 0.000057 -0.024703
v 0.000007 -0.000084 -0.000050
v -0.004174 0.000059 -0.027485
v -0.019502 0.000007 -0.019788
v -0.027378 -0.000080 -0.004552
v -0.024795 -0.000168 0.012404
v -0.012738 -0.000225 0.024603
v 0.004187 -0.000228 0.027386
v 0.019515 -0.000176 0.019689
v 0.027392 -0.000089 0.004453
vt 0.941715 0.662666
vt 0.875613 0.614634
vt 0.793899 0.614636
vt 0.727801 0.662669
vt 0.702559 0.740374
vt 0.727810 0.818074
vt 0.793906 0.866095
vt 0.875605 0.866096
vt 0.941704 0.818077
vt 0.966957 0.740375
vt 0.013679 0.006081
vt 0.087508 0.006970
vt 0.162771 0.006122
vt 0.239184 0.004695
vt 0.316433 0.003475
vt 0.394177 0.002930
vt 0.472050 0.003243
vt 0.549676 0.004323
vt 0.626666 0.005780
vt 0.702635 0.006895
vt 0.777213 0.006536
vt 0.144810 0.869620
vt 0.190847 0.854079
vt 0.239243 0.842818
vt 0.289194 0.835151
vt 0.340070 0.830658
vt 0.391342 0.829120
vt 0.442532 0.830482
vt 0.493164 0.834846
vt 0.542718 0.842471
vt 0.590572 0.853811
vt 0.635912 0.869565
vt 0.997070 0.499442
vt 0.975168 0.432128
vt 0.917930 0.390565
vt 0.847226 0.390569
vt 0.790030 0.432105
vt 0.768149 0.499319
vt 0.789936 0.566573
vt 0.847099 0.608198
vt 0.917835 0.608267
vt 0.975126 0.566746
vt 0.834759 0.740363
vt 0.882625 0.499411
vt 0.768465 0.470783
vt 0.017084 0.465788
vt 0.093004 0.454988
vt 0.168455 0.446623
vt 0.243554 0.440675
vt 0.318418 0.437171
vt 0.393155 0.436156
vt 0.467873 0.437688
vt 0.542673 0.441830
vt 0.617648 0.448656
vt 0.692887 0.458258
vt 0.700986 0.721123
vt 0.080089 0.718496
vt 0.640394 0.703403
vt 0.578896 0.690389
vt 0.516797 0.681504
vt 0.454322 0.676318
vt 0.391641 0.674553
vt 0.328892 0.676087
vt 0.266202 0.680954
vt 0.203710 0.689356
vt 0.141592 0.701676
vt 0.786875 0.235352
vt 0.002930 0.231951
vt 0.081400 0.229559
vt 0.159706 0.226539
vt 0.237936 0.223804
vt 0.316146 0.221967
vt 0.394371 0.221397
vt 0.472632 0.222249
vt 0.550952 0.224479
vt 0.629369 0.227818
vt 0.707965 0.231737
vt 0.891507 0.541383
vt 0.865135 0.538587
vt 0.845444 0.520834
vt 0.839946 0.494900
vt 0.850741 0.470686
vt 0.873710 0.457439
vt 0.900083 0.460219
vt 0.919790 0.477966
vt 0.925297 0.503901
vt 0.914492 0.528127
vt 0.869603 0.633153
vt 0.925967 0.674115
vt 0.799926 0.633150
vt 0.743559 0.674104
vt 0.722029 0.740363
vt 0.743556 0.806622
vt 0.799915 0.847575
vt 0.869582 0.847581
vt 0.925949 0.806637
vt 0.947487 0.740380
vt 0.866183 0.643758
vt 0.916966 0.680683
vt 0.803394 0.643739
vt 0.752589 0.680631
vt 0.733172 0.740337
vt 0.752555 0.800052
vt 0.803334 0.836970
vt 0.866116 0.836991
vt 0.916921 0.800107
vt 0.936345 0.740404
vt 0.856993 0.674483
vt 0.891470 0.700136
vt 0.814022 0.673997
vt 0.778973 0.698862
vt 0.765233 0.739579
vt 0.778048 0.780595
vt 0.812524 0.806245
vt 0.855492 0.806732
vt 0.890541 0.781870
vt 0.904284 0.741155
vn 0.892481 0.053518 -0.447900
vn 0.458591 0.055554 -0.886909
vn 0.456137 0.119055 -0.881910
vn 0.887747 0.117029 -0.445207
vn -0.150478 0.055656 -0.987045
vn -0.149733 0.119156 -0.981520
vn -0.702083 0.053784 -0.710061
vn -0.698441 0.117294 -0.705990
vn -0.985530 0.050653 -0.161754
vn -0.980399 0.114180 -0.160564
vn -0.892552 0.047460 0.448441
vn -0.887908 0.111003 0.446427
vn -0.458663 0.045423 0.887448
vn -0.456300 0.108977 0.883128
vn 0.150404 0.045322 0.987585
vn 0.149569 0.108876 0.982739
vn 0.702011 0.047194 0.710600
vn 0.698279 0.110739 0.707208
vn 0.985458 0.050325 0.162295
vn 0.980237 0.113853 0.161783
vn 0.000716 -0.999986 -0.005340
vn 0.000710 -0.999986 -0.005345
vn 0.000712 -0.999986 -0.005341
vn 0.000717 -0.999986 -0.005336
vn 0.000714 -0.999986 -0.005338
vn 0.000716 -0.999986 -0.005337
vn 0.000713 -0.999985 -0.005338
vn 0.000710 -0.999986 -0.005344
vn 0.000709 -0.999986 -0.005344
vn 0.000708 -0.999986 -0.005344
vn 0.000709 -0.999986 -0.005345
vn 0.790353 0.468695 -0.394547
vn 0.405972 0.470499 -0.783465
vn -0.000712 0.999986 0.005339
vn -0.133607 0.470589 -0.872179
vn -0.622280 0.468930 -0.626796
vn -0.873387 0.466156 -0.141048
vn -0.791016 0.463328 0.399525
vn -0.406633 0.461522 0.788446
vn 0.132945 0.461434 0.877157
vn 0.621616 0.463092 0.631775
vn 0.872723 0.465866 0.146027
vn 0.893585 -0.010416 -0.448774
vn 0.459181 -0.008378 -0.888303
vn -0.150611 -0.008276 -0.988559
vn -0.702870 -0.010151 -0.711246
vn -0.986654 -0.013285 -0.162288
vn -0.893565 -0.016482 0.448631
vn -0.459162 -0.018521 0.888160
vn 0.150629 -0.018623 0.988415
vn 0.702889 -0.016748 0.711102
vn 0.986673 -0.013614 0.162146
vn 0.871684 0.222564 -0.436614
vn 0.962508 0.219444 0.159443
vn 0.685628 0.216386 0.695048
vn 0.146799 0.214558 0.965616
vn -0.448160 0.214656 0.867799
vn -0.871996 0.216645 0.438963
vn -0.962821 0.219765 -0.157098
vn -0.685941 0.222823 -0.692701
vn -0.147113 0.224652 -0.963270
vn 0.447848 0.224553 -0.865453
vn 0.892957 -0.037306 -0.448593
vn 0.458868 -0.035269 -0.887804
vn -0.150482 -0.035167 -0.987987
vn -0.702342 -0.037041 -0.710876
vn -0.985921 -0.040172 -0.162314
vn -0.892899 -0.043367 0.448163
vn -0.458811 -0.045404 0.887373
vn 0.150541 -0.045507 0.987556
vn 0.702400 -0.043634 0.710444
vn 0.985978 -0.040501 0.161884
vn 0.000691 -0.999986 -0.005322
vn 0.000691 -0.999986 -0.005322
vn 0.000691 -0.999986 -0.005322
vn 0.000691 -0.999986 -0.005322
vn 0.000710 -0.999986 -0.005329
vn 0.000710 -0.999986 -0.005329
vn 0.000710 -0.999986 -0.005329
vn 0.000710 -0.999986 -0.005329
vn 0.000709 -0.999986 -0.005344
vn 0.000709 -0.999986 -0.005344
vn 0.000709 -0.999986 -0.005344
vn 0.000709 -0.999986 -0.005344
vn 0.000701 -0.999986 -0.005344
vn 0.000701 -0.999986 -0.005344
vn 0.000701 -0.999986 -0.005344
vn 0.000701 -0.999986 -0.005344
vn 0.000698 -0.999986 -0.005343
vn 0.000698 -0.999986 -0.005343
vn 0.000698 -0.999986 -0.005343
vn 0.000698 -0.999986 -0.005343
vn 0.000707 -0.999986 -0.005337
vn 0.000707 -0.999986 -0.005337
vn 0.000707 -0.999986 -0.005337
vn 0.000707 -0.999986 -0.005337
vn 0.000713 -0.999986 -0.005341
vn 0.000713 -0.999985 -0.005341
vn 0.000713 -0.999985 -0.005341
vn 0.000713 -0.999986 -0.005341
vn 0.000708 -0.999985 -0.005349
vn 0.000708 -0.999985 -0.005349
vn 0.000708 -0.999985 -0.005349
vn 0.000708 -0.999986 -0.005349
vn 0.000706 -0.999986 -0.005345
vn 0.000706 -0.999986 -0.005345
vn 0.000706 -0.999986 -0.005345
vn 0.000706 -0.999986 -0.005345
vn 0.000699 -0.999986 -0.005336
vn 0.000699 -0.999986 -0.005336
vn 0.000699 -0.999986 -0.005336
vn 0.000699 -0.999986 -0.005336
vn -0.339984 -0.879903 0.331936
vn -0.339984 -0.879903 0.331936
vn -0.339984 -0.879903 0.331936
vn -0.339984 -0.879903 0.331936
vn -0.077067 -0.880430 0.467871
vn -0.077067 -0.880430 0.467871
vn -0.077067 -0.880430 0.467871
vn -0.077067 -0.880430 0.467871
vn 0.215541 -0.879981 0.423291
vn 0.215542 -0.879981 0.423291
vn 0.215542 -0.879981 0.423291
vn 0.215542 -0.879981 0.423291
vn 0.426057 -0.878720 0.215237
vn 0.426057 -0.878720 0.215237
vn 0.426057 -0.878720 0.215237
vn 0.426057 -0.878720 0.215237
vn 0.474075 -0.877126 -0.076828
vn 0.474075 -0.877126 -0.076828
vn 0.474075 -0.877126 -0.076828
vn 0.474075 -0.877126 -0.076828
vn 0.341245 -0.875812 -0.341328
vn 0.341245 -0.875812 -0.341328
vn 0.341245 -0.875812 -0.341328
vn 0.341245 -0.875812 -0.341328
vn 0.078320 -0.875271 -0.477250
vn 0.078320 -0.875271 -0.477250
vn 0.078320 -0.875271 -0.477250
vn 0.078320 -0.875271 -0.477250
vn -0.214284 -0.875722 -0.432658
vn -0.214284 -0.875722 -0.432658
vn -0.214284 -0.875722 -0.432658
vn -0.214284 -0.875722 -0.432658
vn -0.424795 -0.876985 -0.224605
vn -0.424795 -0.876985 -0.224605
vn -0.424795 -0.876985 -0.224605
vn -0.424795 -0.876985 -0.224605
vn -0.472806 -0.878582 0.067446
vn -0.472806 -0.878582 0.067446
vn -0.472806 -0.878582 0.067446
vn -0.472806 -0.878582 0.067446
vn 0.634958 -0.447652 -0.629632
vn 0.634958 -0.447652 -0.629632
vn 0.634958 -0.447652 -0.629632
vn 0.634958 -0.447652 -0.629632
vn 0.145079 -0.446649 -0.882869
vn 0.145079 -0.446649 -0.882868
vn 0.145079 -0.446649 -0.882869
vn 0.145079 -0.446649 -0.882868
vn -0.400097 -0.447479 -0.799804
vn -0.400097 -0.447479 -0.799804
vn -0.400097 -0.447479 -0.799804
vn -0.400097 -0.447479 -0.799803
vn -0.792327 -0.449822 -0.412162
vn -0.792327 -0.449822 -0.412162
vn -0.792327 -0.449822 -0.412162
vn -0.792327 -0.449822 -0.412162
vn -0.881791 -0.452795 0.131992
vn -0.881791 -0.452795 0.131992
vn -0.881791 -0.452795 0.131992
vn -0.881791 -0.452795 0.131992
vn -0.634316 -0.455251 0.624812
vn -0.634316 -0.455251 0.624812
vn -0.634316 -0.455251 0.624812
vn -0.634316 -0.455251 0.624812
vn -0.144437 -0.456256 0.878048
vn -0.144437 -0.456256 0.878048
vn -0.144437 -0.456256 0.878048
vn -0.144437 -0.456256 0.878048
vn 0.400740 -0.455428 0.794980
vn 0.400740 -0.455428 0.794980
vn 0.400740 -0.455428 0.794980
vn 0.400740 -0.455428 0.794980
vn 0.792966 -0.453081 0.407337
vn 0.792966 -0.453081 0.407337
vn 0.792966 -0.453081 0.407337
vn 0.792966 -0.453081 0.407337
vn 0.882429 -0.450111 -0.136816
vn 0.882429 -0.450112 -0.136816
vn 0.882429 -0.450112 -0.136816
vn 0.882429 -0.450112 -0.136816
s 1
g CornCob
usemtl initialShadingGroup
f 21/46/1 22/47/2 40/66/3 31/57/4
f 22/47/2 23/48/5 39/65/6 40/66/3
f 23/48/5 24/49/7 38/64/8 39/65/6
f 24/49/7 25/50/9 37/63/10 38/64/8
f 25/50/9 26/51/11 36/62/12 37/63/10
f 26/51/11 27/52/13 35/61/14 36/62/12
f 27/52/13 28/53/15 34/60/16 35/61/14
f 28/53/15 29/54/17 33/59/18 34/60/16
f 29/54/17 30/55/19 32/58/20 33/59/18
f 30/55/19 21/45/1 31/56/4 32/58/20
s 2
f 83/108/21 82/109/22 84/43/23
f 85/110/24 83/108/21 84/43/23
f 86/111/25 85/110/24 84/43/23
f 87/112/26 86/111/25 84/43/23
f 88/113/27 87/112/26 84/43/23
f 89/114/28 88/113/27 84/43/23
f 90/115/29 89/114/28 84/43/23
f 91/116/30 90/115/29 84/43/23
f 92/117/31 91/116/30 84/43/23
f 82/109/22 92/117/31 84/43/23
s 1
f 51/78/32 52/79/33 53/44/34
f 52/79/33 54/80/35 53/44/34
f 54/80/35 55/81/36 53/44/34
f 55/81/36 56/82/37 53/44/34
f 56/82/37 57/83/38 53/44/34
f 57/83/38 58/84/39 53/44/34
f 58/84/39 59/85/40 53/44/34
f 59/85/40 60/86/41 53/44/34
f 60/86/41 61/87/42 53/44/34
f 61/87/42 51/78/32 53/44/34
f 41/68/43 42/69/44 22/47/2 21/46/1
f 42/69/44 43/70/45 23/48/5 22/47/2
f 43/70/45 44/71/46 24/49/7 23/48/5
f 44/71/46 45/72/47 25/50/9 24/49/7
f 45/72/47 46/73/48 26/51/11 25/50/9
f 46/73/48 47/74/49 27/52/13 26/51/11
f 47/74/49 48/75/50 28/53/15 27/52/13
f 48/75/50 49/76/51 29/54/17 28/53/15
f 49/76/51 50/77/52 30/55/19 29/54/17
f 50/77/52 41/67/43 21/45/1 30/55/19
f 32/58/20 31/56/4 11/32/53 20/31/54
f 33/59/18 32/58/20 20/31/54 19/30/55
f 34/60/16 33/59/18 19/30/55 18/29/56
f 35/61/14 34/60/16 18/29/56 17/28/57
f 36/62/12 35/61/14 17/28/57 16/27/58
f 37/63/10 36/62/12 16/27/58 15/26/59
f 38/64/8 37/63/10 15/26/59 14/25/60
f 39/65/6 38/64/8 14/25/60 13/24/61
f 40/66/3 39/65/6 13/24/61 12/23/62
f 31/57/4 40/66/3 12/23/62 11/22/53
f 1/11/63 2/12/64 42/69/44 41/68/43
f 2/12/64 3/13/65 43/70/45 42/69/44
f 3/13/65 4/14/66 44/71/46 43/70/45
f 4/14/66 5/15/67 45/72/47 44/71/46
f 5/15/67 6/16/68 46/73/48 45/72/47
f 6/16/68 7/17/69 47/74/49 46/73/48
f 7/17/69 8/18/70 48/75/50 47/74/49
f 8/18/70 9/19/71 49/76/51 48/75/50
f 9/19/71 10/20/72 50/77/52 49/76/51
f 10/20/72 1/21/63 41/67/43 50/77/52
f 11/41/53 12/40/62 52/79/33 51/78/32
f 12/40/62 13/39/61 54/80/35 52/79/33
f 13/39/61 14/38/60 55/81/36 54/80/35
f 14/38/60 15/37/59 56/82/37 55/81/36
f 15/37/59 16/36/58 57/83/38 56/82/37
f 16/36/58 17/35/57 58/84/39 57/83/38
f 17/35/57 18/34/56 59/85/40 58/84/39
f 18/34/56 19/33/55 60/86/41 59/85/40
f 19/33/55 20/42/54 61/87/42 60/86/41
f 20/42/54 11/41/53 51/78/32 61/87/42
s off
f 2/2/73 1/1/74 62/89/75 63/88/76
f 3/3/77 2/2/78 63/88/79 64/90/80
f 4/4/81 3/3/82 64/90/83 65/91/84
f 5/5/85 4/4/86 65/91/87 66/92/88
f 6/6/89 5/5/90 66/92/91 67/93/92
f 7/7/93 6/6/94 67/93/95 68/94/96
f 8/8/97 7/7/98 68/94/99 69/95/100
f 9/9/101 8/8/102 69/95/103 70/96/104
f 10/10/105 9/9/106 70/96/107 71/97/108
f 1/1/109 10/10/110 71/97/111 62/89/112
f 63/88/113 62/89/114 72/99/115 73/98/116
f 64/90/117 63/88/118 73/98/119 74/100/120
f 65/91/121 64/90/122 74/100/123 75/101/124
f 66/92/125 65/91/126 75/101/127 76/102/128
f 67/93/129 66/92/130 76/102/131 77/103/132
f 68/94/133 67/93/134 77/103/135 78/104/136
f 69/95/137 68/94/138 78/104/139 79/105/140
f 70/96/141 69/95/142 79/105/143 80/106/144
f 71/97/145 70/96/146 80/106/147 81/107/148
f 62/89/149 71/97/150 81/107/151 72/99/152
f 73/98/153 72/99/154 82/109/155 83/108/156
f 74/100/157 73/98/158 83/108/159 85/110/160
f 75/101/161 74/100/162 85/110/163 86/111/164
f 76/102/165 75/101/166 86/111/167 87/112/168
f 77/103/169 76/102/170 87/112/171 88/113/172
f 78/104/173 77/103/174 88/113/175 89/114/176
f 79/105/177 78/104/178 89/114/179 90/115/180
f 80/106/181 79/105/182 90/115/183 91/116/184
f 81/107/185 80/106/186 91/116/187 92/117/188
f 72/99/189 81/107/190 92/117/191 82/109/192
