# This file uses centimeters as units for non-parametric coordinates.

mtllib Tomato.mtl
g default
v 0.000813 -0.003676 0.000911
v -0.000928 -0.003446 0.000840
v -0.001741 -0.003288 -0.000071
v -0.001626 -0.003202 -0.001823
v 0.001510 0.004445 0.001699
v -0.000231 0.004675 0.001628
v -0.001044 0.004833 0.000716
v -0.000930 0.004919 -0.001035
v -0.000512 0.012391 0.003885
v -0.001929 0.012558 0.004178
v -0.002417 0.012653 0.003630
v -0.001978 0.012676 0.002242
v -0.004372 0.019119 0.008496
v -0.005789 0.019286 0.008789
v -0.006277 0.019381 0.008241
v -0.005838 0.019404 0.006853
v 0.001204 -0.003618 -0.000210
v 0.000206 -0.003620 0.001227
v -0.000999 -0.003521 0.001437
v -0.002408 -0.003319 0.000420
v 0.002045 0.004429 0.000802
v 0.001047 0.004427 0.002239
v -0.000157 0.004526 0.002449
v -0.001567 0.004727 0.001432
v 0.002606 0.011859 0.004787
v 0.002088 0.011817 0.006140
v 0.001365 0.011877 0.006266
v 0.000436 0.012038 0.005165
v 0.004244 0.017703 0.011412
v 0.003727 0.017661 0.012765
v 0.003003 0.017720 0.012892
v 0.002074 0.017882 0.011791
v -0.000242 -0.003851 -0.001158
v 0.001224 -0.003666 -0.000214
v 0.001466 -0.003333 0.000944
v 0.000485 -0.002852 0.002316
v 0.000757 0.003886 -0.003593
v 0.002223 0.004071 -0.002649
v 0.002466 0.004404 -0.001490
v 0.001484 0.004885 -0.000119
v 0.004742 0.011054 -0.005708
v 0.006111 0.011106 -0.005226
v 0.006257 0.011306 -0.004530
v 0.005178 0.011654 -0.003621
v 0.011342 0.016434 -0.008637
v 0.012712 0.016487 -0.008155
v 0.012857 0.016687 -0.007460
v 0.011779 0.017035 -0.006550
v 0.013195 -0.054664 -0.009590
v 0.005040 -0.054664 -0.015515
v -0.005040 -0.054664 -0.015515
v -0.013226 -0.054775 -0.009613
v -0.016348 -0.054775 -0.000003
v -0.013226 -0.054775 0.009606
v -0.005052 -0.054775 0.015545
v 0.005052 -0.054775 0.015545
v 0.013226 -0.054775 0.009606
v 0.016348 -0.054775 -0.000003
v 0.023663 -0.048134 -0.017195
v 0.009038 -0.048128 -0.027821
v -0.009038 -0.048134 -0.027821
v -0.023712 -0.048194 -0.017231
v -0.029309 -0.048189 -0.000003
v -0.023712 -0.048189 0.017224
v -0.009057 -0.048189 0.027871
v 0.009057 -0.048189 0.027871
v 0.023712 -0.048189 0.017224
v 0.029309 -0.048202 -0.000003
v 0.028093 -0.042215 -0.020411
v 0.010731 -0.042207 -0.033025
v -0.010731 -0.042215 -0.033025
v -0.028093 -0.041505 -0.020411
v -0.034465 -0.041495 -0.000073
v -0.028093 -0.041495 0.020411
v -0.010731 -0.041495 0.032867
v 0.010731 -0.041495 0.033025
v 0.027899 -0.041495 0.020301
v 0.034725 -0.041515 0.000000
v 0.030404 -0.036939 -0.022090
v 0.011613 -0.036932 -0.035742
v -0.011613 -0.036939 -0.035742
v -0.030404 -0.035692 -0.022089
v -0.035061 -0.035703 -0.000705
v -0.030404 -0.035703 0.022089
v -0.011613 -0.035703 0.034210
v 0.011613 -0.035703 0.035742
v 0.028523 -0.035703 0.021025
v 0.037581 -0.035700 0.000000
v 0.031968 -0.029931 -0.023226
v 0.012211 -0.030227 -0.037581
v -0.012211 -0.029931 -0.037581
v -0.031968 -0.028964 -0.023226
v -0.035332 -0.029114 -0.001170
v -0.031968 -0.029114 0.023226
v -0.012211 -0.029114 0.035038
v 0.012211 -0.029114 0.037581
v 0.028847 -0.029114 0.021459
v 0.039515 -0.028966 0.000000
v 0.031019 -0.018741 -0.022537
v 0.011848 -0.018845 -0.036465
v -0.011848 -0.018741 -0.036465
v -0.031019 -0.018760 -0.022537
v -0.034159 -0.019061 -0.001170
v -0.031019 -0.019061 0.022537
v -0.011848 -0.019061 0.033922
v 0.011848 -0.019061 0.036465
v 0.027898 -0.019061 0.020770
v 0.038342 -0.018726 0.000000
v 0.027447 -0.009318 -0.019941
v 0.010484 -0.009277 -0.032265
v -0.010484 -0.009318 -0.032265
v -0.027447 -0.010226 -0.019941
v -0.029743 -0.010630 -0.001170
v -0.027447 -0.010630 0.019941
v -0.010484 -0.010630 0.029722
v 0.010484 -0.010630 0.032265
v 0.024325 -0.010630 0.018174
v 0.033926 -0.010158 0.000000
v 0.022499 -0.000188 -0.016347
v 0.008452 -0.000517 -0.026014
v -0.008594 -0.000188 -0.026449
v -0.022129 -0.001713 -0.016077
v -0.023620 -0.001885 -0.001170
v -0.022493 -0.001885 0.016342
v -0.008592 -0.001885 0.025835
v 0.008592 -0.001885 0.026442
v 0.021748 -0.001885 0.015921
v 0.027803 -0.001350 0.000000
v 0.013263 0.002239 -0.009636
v 0.004968 -0.000207 -0.015290
v -0.005066 0.000348 -0.015592
v -0.013012 -0.000764 -0.009454
v -0.015795 0.001493 -0.000168
v -0.013619 0.001292 0.009895
v -0.005202 0.001019 0.016010
v 0.005202 0.000149 0.016010
v 0.013619 0.000149 0.009895
v 0.016829 0.001856 0.000000
v 0.000000 -0.057042 -0.000003
v 0.000000 0.000000 0.000000
v -0.001254 -0.003766 -0.000031
v 0.000109 -0.003916 -0.001235
v 0.001363 -0.003668 -0.001204
v 0.002508 -0.003023 0.000062
v -0.002709 0.003995 -0.003185
v -0.001346 0.003845 -0.004388
v -0.000092 0.004093 -0.004357
v 0.001054 0.004738 -0.003091
v -0.003076 0.010543 -0.009068
v -0.002213 0.010295 -0.010284
v -0.001460 0.010443 -0.010266
v -0.000816 0.010990 -0.009012
v -0.003701 0.014756 -0.017414
v -0.002839 0.014507 -0.018630
v -0.002085 0.014656 -0.018611
v -0.001441 0.015203 -0.017358
v -0.000167 -0.003443 0.001122
v -0.001125 -0.003742 -0.000153
v -0.000957 -0.003817 -0.001274
v 0.000334 -0.003668 -0.002243
v -0.001970 0.003855 0.000365
v -0.002927 0.003557 -0.000909
v -0.002760 0.003482 -0.002031
v -0.001468 0.003630 -0.002999
v -0.006234 0.010185 -0.001383
v -0.007259 0.009916 -0.002210
v -0.007158 0.009871 -0.002883
v -0.005933 0.010050 -0.003404
v -0.012995 0.014861 -0.002704
v -0.014019 0.014593 -0.003530
v -0.013919 0.014548 -0.004204
v -0.012693 0.014726 -0.004725
vt 0.845739 0.033788
vt 0.854696 0.034235
vt 0.860889 0.034246
vt 0.869846 0.033791
vt 0.845834 0.074994
vt 0.854659 0.076466
vt 0.860968 0.076455
vt 0.869792 0.074974
vt 0.849495 0.116792
vt 0.855947 0.120374
vt 0.859777 0.120361
vt 0.866218 0.116761
vt 0.850241 0.161645
vt 0.856086 0.166008
vt 0.859805 0.166002
vt 0.865633 0.161616
vt 0.920474 0.033788
vt 0.929393 0.034233
vt 0.929356 0.076283
vt 0.920568 0.074816
vt 0.935559 0.034244
vt 0.935638 0.076272
vt 0.944478 0.033791
vt 0.944423 0.074797
vt 0.930638 0.120002
vt 0.924214 0.116435
vt 0.934451 0.119989
vt 0.940864 0.116405
vt 0.930776 0.165440
vt 0.924957 0.161095
vt 0.934480 0.165434
vt 0.940282 0.161067
vt 0.883107 0.033788
vt 0.892046 0.034234
vt 0.892009 0.076382
vt 0.883201 0.074912
vt 0.898226 0.034245
vt 0.898306 0.076371
vt 0.907166 0.033791
vt 0.907111 0.074892
vt 0.893294 0.120202
vt 0.886855 0.116627
vt 0.897116 0.120189
vt 0.903544 0.116596
vt 0.893432 0.165745
vt 0.887600 0.161391
vt 0.897145 0.165739
vt 0.902961 0.161362
vt 0.701262 0.902205
vt 0.711300 0.896655
vt 0.726747 0.916643
vt 0.713975 0.932319
vt 0.717375 0.887219
vt 0.732884 0.900933
vt 0.720810 0.876580
vt 0.736147 0.885537
vt 0.722699 0.865714
vt 0.738494 0.870572
vt 0.723237 0.854912
vt 0.738691 0.855922
vt 0.722918 0.844062
vt 0.738840 0.841076
vt 0.721342 0.833241
vt 0.737263 0.825784
vt 0.718094 0.822729
vt 0.735041 0.810596
vt 0.711772 0.813294
vt 0.728929 0.794337
vt 0.700805 0.807347
vt 0.718452 0.778383
vt 0.737447 0.923686
vt 0.726327 0.944814
vt 0.742482 0.905558
vt 0.746083 0.888327
vt 0.747724 0.872162
vt 0.748200 0.856187
vt 0.748022 0.839924
vt 0.747310 0.823311
vt 0.745417 0.806209
vt 0.741466 0.787798
vt 0.731568 0.767089
vt 0.746051 0.927224
vt 0.737198 0.951756
vt 0.749917 0.907921
vt 0.753514 0.889730
vt 0.754458 0.873365
vt 0.755165 0.856361
vt 0.754800 0.839747
vt 0.754735 0.822242
vt 0.753184 0.804402
vt 0.751163 0.784609
vt 0.742815 0.761307
vt 0.756324 0.930004
vt 0.752001 0.956598
vt 0.759158 0.909616
vt 0.761568 0.890545
vt 0.762249 0.874265
vt 0.762509 0.856513
vt 0.762433 0.839729
vt 0.762594 0.821954
vt 0.762171 0.803324
vt 0.761826 0.783057
vt 0.757551 0.757184
vt 0.773927 0.930617
vt 0.776054 0.956100
vt 0.773652 0.909750
vt 0.773294 0.890260
vt 0.774348 0.874226
vt 0.773303 0.856796
vt 0.774099 0.840258
vt 0.774156 0.822213
vt 0.776074 0.804665
vt 0.777309 0.784490
vt 0.781595 0.757610
vt 0.790060 0.926307
vt 0.797058 0.947775
vt 0.786477 0.906845
vt 0.784338 0.889058
vt 0.785493 0.873590
vt 0.783382 0.857031
vt 0.784707 0.841434
vt 0.784923 0.824043
vt 0.788622 0.808189
vt 0.791628 0.788695
vt 0.801920 0.767600
vt 0.805908 0.916889
vt 0.815576 0.931689
vt 0.799146 0.900685
vt 0.796622 0.885888
vt 0.797851 0.871968
vt 0.794619 0.857198
vt 0.795505 0.842963
vt 0.796753 0.828049
vt 0.800401 0.814124
vt 0.806237 0.798230
vt 0.819455 0.784829
vt 0.817534 0.900225
vt 0.828508 0.906857
vt 0.812107 0.890660
vt 0.808453 0.879540
vt 0.807022 0.868271
vt 0.806504 0.857521
vt 0.806451 0.846327
vt 0.808801 0.835074
vt 0.811355 0.824095
vt 0.818785 0.814630
vt 0.829211 0.810301
vt 0.702310 0.855300
vt 0.827148 0.857996
vt 0.808371 0.033788
vt 0.817672 0.034252
vt 0.817632 0.078101
vt 0.808468 0.076572
vt 0.824101 0.034264
vt 0.824183 0.078090
vt 0.833402 0.033792
vt 0.833344 0.076552
vt 0.818968 0.123691
vt 0.812269 0.119971
vt 0.822945 0.123677
vt 0.829632 0.119940
vt 0.819111 0.171072
vt 0.813043 0.166542
vt 0.822973 0.171066
vt 0.829024 0.166513
vt 0.771962 0.035864
vt 0.781570 0.036344
vt 0.781530 0.081643
vt 0.772064 0.080063
vt 0.788213 0.036355
vt 0.788298 0.081631
vt 0.797821 0.035867
vt 0.797762 0.080043
vt 0.782912 0.128741
vt 0.775991 0.124898
vt 0.787020 0.128727
vt 0.793929 0.124865
vt 0.783061 0.177690
vt 0.776792 0.173010
vt 0.787051 0.177684
vt 0.793302 0.172979
vn 0.052856 0.091901 -0.994364
vn 0.361333 0.059254 -0.930552
vn 0.318664 0.194197 -0.927761
vn 0.019104 0.167522 -0.985683
vn 0.965670 -0.058276 -0.253153
vn 0.980348 0.065514 -0.186082
vn 0.993996 -0.091130 0.060561
vn 0.994005 -0.022077 0.107084
vn 0.233493 0.496180 -0.836234
vn -0.055540 0.348155 -0.935790
vn 0.931187 0.360493 -0.054185
vn 0.966304 0.149425 0.209594
vn 0.294666 0.649462 -0.700979
vn -0.114549 0.516044 -0.848868
vn 0.832865 0.544785 -0.097701
vn 0.902264 0.318294 0.290876
vn -0.811319 0.155686 -0.563492
vn -0.590698 0.161188 -0.790629
vn -0.614536 0.288771 -0.734136
vn -0.823981 0.225448 -0.519835
vn 0.308091 0.086938 -0.947376
vn 0.369537 0.207477 -0.905757
vn 0.588382 0.040055 -0.807590
vn 0.625928 0.105667 -0.772690
vn -0.590496 0.570734 -0.570593
vn -0.826449 0.391196 -0.404904
vn 0.447130 0.485012 -0.751557
vn 0.693270 0.265648 -0.669932
vn -0.447298 0.722742 -0.526848
vn -0.789000 0.544304 -0.284979
vn 0.353132 0.656620 -0.666444
vn 0.723227 0.419368 -0.548701
vn -0.541641 0.315182 0.779285
vn -0.774548 0.278710 0.567799
vn -0.717322 0.408144 0.564684
vn -0.497598 0.385802 0.776887
vn -0.955126 0.030643 -0.294612
vn -0.915036 0.136538 -0.379562
vn -0.822863 -0.071138 -0.563770
vn -0.788907 -0.014378 -0.614345
vn -0.554206 0.678911 0.481596
vn -0.382484 0.548109 0.743829
vn -0.762683 0.392525 -0.514041
vn -0.687817 0.128659 -0.714391
vn -0.514129 0.799623 0.310281
vn -0.263449 0.690160 0.673999
vn -0.674949 0.578708 -0.457756
vn -0.567275 0.272778 -0.777040
vn 0.312161 -0.921397 -0.231483
vn 0.119789 -0.921808 -0.368674
vn 0.187733 -0.794286 -0.577812
vn 0.500887 -0.788040 -0.357918
vn -0.116622 -0.921369 -0.370780
vn -0.195031 -0.787991 -0.583981
vn -0.310921 -0.922141 -0.230183
vn -0.515827 -0.774026 -0.367159
vn -0.388144 -0.921599 0.000082
vn -0.643643 -0.765326 0.000748
vn -0.314049 -0.921581 0.228170
vn -0.520143 -0.766489 0.376758
vn -0.119956 -0.921581 0.369187
vn -0.197946 -0.766824 0.610573
vn 0.119956 -0.921581 0.369187
vn 0.198463 -0.766731 0.610521
vn 0.313840 -0.921626 0.228277
vn 0.520131 -0.765907 0.377955
vn 0.386609 -0.922237 -0.003467
vn 0.632939 -0.774176 0.006296
vn 0.252001 -0.578811 -0.775547
vn 0.673409 -0.569400 -0.471491
vn -0.267756 -0.569385 -0.777244
vn -0.708819 -0.513929 -0.483169
vn -0.886300 -0.463058 0.007123
vn -0.715852 -0.480194 0.506922
vn -0.263729 -0.494984 0.827912
vn 0.270959 -0.485858 0.830977
vn 0.713526 -0.474589 0.515408
vn 0.857018 -0.514565 0.027272
vn 0.288729 -0.356367 -0.888616
vn 0.762190 -0.355421 -0.541056
vn -0.298586 -0.355494 -0.885703
vn -0.798556 -0.291221 -0.526781
vn -0.977842 -0.209302 -0.004255
vn -0.804234 -0.247786 0.540195
vn -0.298964 -0.272927 0.914402
vn 0.301432 -0.258388 0.917809
vn 0.786856 -0.231590 0.572035
vn 0.954801 -0.293372 0.047837
vn 0.308779 -0.039218 -0.950325
vn 0.805602 -0.040278 -0.591086
vn -0.304160 -0.040305 -0.951768
vn -0.835416 -0.015922 -0.549388
vn -0.999979 0.005389 -0.003508
vn -0.839548 -0.000789 0.543285
vn -0.311515 -0.015021 0.950123
vn 0.312783 -0.004693 0.949813
vn 0.808690 -0.001963 0.588232
vn 0.998405 -0.016656 0.053945
vn 0.299623 0.244691 -0.922146
vn 0.778588 0.251443 -0.574958
vn -0.291850 0.251733 -0.922743
vn -0.809125 0.267190 -0.523379
vn -0.965089 0.261918 0.001367
vn -0.809917 0.279013 0.515933
vn -0.297651 0.267309 0.916488
vn 0.301051 0.278773 0.911951
vn 0.779840 0.262853 0.568118
vn 0.961808 0.267118 0.059779
vn 0.269571 0.488880 -0.829655
vn 0.703478 0.494691 -0.510294
vn -0.270580 0.500203 -0.822547
vn -0.730674 0.516740 -0.446201
vn -0.868905 0.494975 0.001885
vn -0.729735 0.515507 0.449154
vn -0.275785 0.473795 0.836338
vn 0.273613 0.489704 0.827844
vn 0.718419 0.451006 0.529591
vn 0.871216 0.486718 0.063939
vn 0.183052 0.787225 -0.588871
vn 0.509957 0.777305 -0.368430
vn -0.202138 0.805284 -0.557367
vn -0.563047 0.767917 -0.305422
vn -0.664738 0.746948 -0.013862
vn -0.593195 0.726705 0.346437
vn -0.202813 0.729355 0.653382
vn 0.216516 0.730936 0.647189
vn 0.557561 0.715397 0.421109
vn 0.677058 0.733138 0.064048
vn -0.015790 0.996191 -0.085762
vn 0.047827 0.996275 -0.071752
vn -0.037840 0.999264 -0.006282
vn -0.112425 0.991990 -0.057584
vn -0.164675 0.985111 -0.049390
vn -0.163976 0.981064 0.103084
vn -0.026963 0.986338 0.162514
vn 0.063460 0.988571 0.136752
vn 0.105286 0.985494 0.133105
vn 0.145684 0.986587 0.073638
vn 0.001081 -0.999994 -0.003328
vn -0.016780 0.999813 -0.009574
vn 0.633071 0.390307 0.668492
vn 0.365246 0.408384 0.836551
vn 0.388680 0.523792 0.758004
vn 0.648571 0.450735 0.613347
vn -0.532495 0.231039 0.814291
vn -0.594253 0.329619 0.733631
vn -0.765008 0.114123 0.633828
vn -0.799661 0.164642 0.577439
vn 0.375608 0.759158 0.531600
vn 0.661403 0.587781 0.465896
vn -0.660824 0.554414 0.505902
vn -0.856564 0.287914 0.428257
vn 0.232187 0.875199 0.424402
vn 0.638178 0.705464 0.308301
vn -0.567326 0.717258 0.404577
vn -0.872313 0.407076 0.270849
vn 0.778173 0.128505 -0.614764
vn 0.920819 0.192283 -0.339292
vn 0.863807 0.307027 -0.399464
vn 0.734843 0.189554 -0.651210
vn 0.786115 0.252622 0.564098
vn 0.716319 0.373096 0.589649
vn 0.568399 0.222473 0.792104
vn 0.517546 0.286896 0.806124
vn 0.676660 0.564915 -0.472231
vn 0.612453 0.336523 -0.715300
vn 0.521145 0.634580 0.570715
vn 0.384691 0.438559 0.812207
vn 0.575746 0.726219 -0.375662
vn 0.473651 0.475365 -0.741406
vn 0.455782 0.779959 0.428866
vn 0.247004 0.576894 0.778577
s 1
g Tomato TomatoPlant
usemtl initialShadingGroup
f 1/1/1 2/2/2 6/6/3 5/5/4
f 2/2/2 3/3/5 7/7/6 6/6/3
f 3/3/5 4/4/7 8/8/8 7/7/6
f 5/5/4 6/6/3 10/10/9 9/9/10
f 6/6/3 7/7/6 11/11/11 10/10/9
f 7/7/6 8/8/8 12/12/12 11/11/11
f 9/9/10 10/10/9 14/14/13 13/13/14
f 10/10/9 11/11/11 15/15/15 14/14/13
f 11/11/11 12/12/12 16/16/16 15/15/15
s 2
f 17/17/17 18/18/18 22/19/19 21/20/20
f 18/18/18 19/21/21 23/22/22 22/19/19
f 19/21/21 20/23/23 24/24/24 23/22/22
f 21/20/20 22/19/19 26/25/25 25/26/26
f 22/19/19 23/22/22 27/27/27 26/25/25
f 23/22/22 24/24/24 28/28/28 27/27/27
f 25/26/26 26/25/25 30/29/29 29/30/30
f 26/25/25 27/27/27 31/31/31 30/29/29
f 27/27/27 28/28/28 32/32/32 31/31/31
s 3
f 33/33/33 34/34/34 38/35/35 37/36/36
f 34/34/34 35/37/37 39/38/38 38/35/35
f 35/37/37 36/39/39 40/40/40 39/38/38
f 37/36/36 38/35/35 42/41/41 41/42/42
f 38/35/35 39/38/38 43/43/43 42/41/41
f 39/38/38 40/40/40 44/44/44 43/43/43
f 41/42/42 42/41/41 46/45/45 45/46/46
f 42/41/41 43/43/43 47/47/47 46/45/45
f 43/43/43 44/44/44 48/48/48 47/47/47
s 4
f 49/49/49 50/50/50 60/51/51 59/52/52
f 50/50/50 51/53/53 61/54/54 60/51/51
f 51/53/53 52/55/55 62/56/56 61/54/54
f 52/55/55 53/57/57 63/58/58 62/56/56
f 53/57/57 54/59/59 64/60/60 63/58/58
f 54/59/59 55/61/61 65/62/62 64/60/60
f 55/61/61 56/63/63 66/64/64 65/62/62
f 56/63/63 57/65/65 67/66/66 66/64/64
f 57/65/65 58/67/67 68/68/68 67/66/66
f 58/67/67 49/69/49 59/70/52 68/68/68
f 59/52/52 60/51/51 70/71/69 69/72/70
f 60/51/51 61/54/54 71/73/71 70/71/69
f 61/54/54 62/56/56 72/74/72 71/73/71
f 62/56/56 63/58/58 73/75/73 72/74/72
f 63/58/58 64/60/60 74/76/74 73/75/73
f 64/60/60 65/62/62 75/77/75 74/76/74
f 65/62/62 66/64/64 76/78/76 75/77/75
f 66/64/64 67/66/66 77/79/77 76/78/76
f 67/66/66 68/68/68 78/80/78 77/79/77
f 68/68/68 59/70/52 69/81/70 78/80/78
f 69/72/70 70/71/69 80/82/79 79/83/80
f 70/71/69 71/73/71 81/84/81 80/82/79
f 71/73/71 72/74/72 82/85/82 81/84/81
f 72/74/72 73/75/73 83/86/83 82/85/82
f 73/75/73 74/76/74 84/87/84 83/86/83
f 74/76/74 75/77/75 85/88/85 84/87/84
f 75/77/75 76/78/76 86/89/86 85/88/85
f 76/78/76 77/79/77 87/90/87 86/89/86
f 77/79/77 78/80/78 88/91/88 87/90/87
f 78/80/78 69/81/70 79/92/80 88/91/88
f 79/83/80 80/82/79 90/93/89 89/94/90
f 80/82/79 81/84/81 91/95/91 90/93/89
f 81/84/81 82/85/82 92/96/92 91/95/91
f 82/85/82 83/86/83 93/97/93 92/96/92
f 83/86/83 84/87/84 94/98/94 93/97/93
f 84/87/84 85/88/85 95/99/95 94/98/94
f 85/88/85 86/89/86 96/100/96 95/99/95
f 86/89/86 87/90/87 97/101/97 96/100/96
f 87/90/87 88/91/88 98/102/98 97/101/97
f 88/91/88 79/92/80 89/103/90 98/102/98
f 89/94/90 90/93/89 100/104/99 99/105/100
f 90/93/89 91/95/91 101/106/101 100/104/99
f 91/95/91 92/96/92 102/107/102 101/106/101
f 92/96/92 93/97/93 103/108/103 102/107/102
f 93/97/93 94/98/94 104/109/104 103/108/103
f 94/98/94 95/99/95 105/110/105 104/109/104
f 95/99/95 96/100/96 106/111/106 105/110/105
f 96/100/96 97/101/97 107/112/107 106/111/106
f 97/101/97 98/102/98 108/113/108 107/112/107
f 98/102/98 89/103/90 99/114/100 108/113/108
f 99/105/100 100/104/99 110/115/109 109/116/110
f 100/104/99 101/106/101 111/117/111 110/115/109
f 101/106/101 102/107/102 112/118/112 111/117/111
f 102/107/102 103/108/103 113/119/113 112/118/112
f 103/108/103 104/109/104 114/120/114 113/119/113
f 104/109/104 105/110/105 115/121/115 114/120/114
f 105/110/105 106/111/106 116/122/116 115/121/115
f 106/111/106 107/112/107 117/123/117 116/122/116
f 107/112/107 108/113/108 118/124/118 117/123/117
f 108/113/108 99/114/100 109/125/110 118/124/118
f 109/116/110 110/115/109 120/126/119 119/127/120
f 110/115/109 111/117/111 121/128/121 120/126/119
f 111/117/111 112/118/112 122/129/122 121/128/121
f 112/118/112 113/119/113 123/130/123 122/129/122
f 113/119/113 114/120/114 124/131/124 123/130/123
f 114/120/114 115/121/115 125/132/125 124/131/124
f 115/121/115 116/122/116 126/133/126 125/132/125
f 116/122/116 117/123/117 127/134/127 126/133/126
f 117/123/117 118/124/118 128/135/128 127/134/127
f 118/124/118 109/125/110 119/136/120 128/135/128
f 119/127/120 120/126/119 130/137/129 129/138/130
f 120/126/119 121/128/121 131/139/131 130/137/129
f 121/128/121 122/129/122 132/140/132 131/139/131
f 122/129/122 123/130/123 133/141/133 132/140/132
f 123/130/123 124/131/124 134/142/134 133/141/133
f 124/131/124 125/132/125 135/143/135 134/142/134
f 125/132/125 126/133/126 136/144/136 135/143/135
f 126/133/126 127/134/127 137/145/137 136/144/136
f 127/134/127 128/135/128 138/146/138 137/145/137
f 128/135/128 119/136/120 129/147/130 138/146/138
f 50/50/50 49/49/49 139/148/139
f 51/53/53 50/50/50 139/148/139
f 52/55/55 51/53/53 139/148/139
f 53/57/57 52/55/55 139/148/139
f 54/59/59 53/57/57 139/148/139
f 55/61/61 54/59/59 139/148/139
f 56/63/63 55/61/61 139/148/139
f 57/65/65 56/63/63 139/148/139
f 58/67/67 57/65/65 139/148/139
f 49/69/49 58/67/67 139/148/139
f 129/138/130 130/137/129 140/149/140
f 130/137/129 131/139/131 140/149/140
f 131/139/131 132/140/132 140/149/140
f 132/140/132 133/141/133 140/149/140
f 133/141/133 134/142/134 140/149/140
f 134/142/134 135/143/135 140/149/140
f 135/143/135 136/144/136 140/149/140
f 136/144/136 137/145/137 140/149/140
f 137/145/137 138/146/138 140/149/140
f 138/146/138 129/147/130 140/149/140
s 5
f 141/150/141 142/151/142 146/152/143 145/153/144
f 142/151/142 143/154/145 147/155/146 146/152/143
f 143/154/145 144/156/147 148/157/148 147/155/146
f 145/153/144 146/152/143 150/158/149 149/159/150
f 146/152/143 147/155/146 151/160/151 150/158/149
f 147/155/146 148/157/148 152/161/152 151/160/151
f 149/159/150 150/158/149 154/162/153 153/163/154
f 150/158/149 151/160/151 155/164/155 154/162/153
f 151/160/151 152/161/152 156/165/156 155/164/155
s 6
f 157/166/157 158/167/158 162/168/159 161/169/160
f 158/167/158 159/170/161 163/171/162 162/168/159
f 159/170/161 160/172/163 164/173/164 163/171/162
f 161/169/160 162/168/159 166/174/165 165/175/166
f 162/168/159 163/171/162 167/176/167 166/174/165
f 163/171/162 164/173/164 168/177/168 167/176/167
f 165/175/166 166/174/165 170/178/169 169/179/170
f 166/174/165 167/176/167 171/180/171 170/178/169
f 167/176/167 168/177/168 172/181/172 171/180/171
